<svg id="Layer_1" data-name="Layer 1" xmlns="http://www.w3.org/2000/svg" xmlns:xlink="http://www.w3.org/1999/xlink" viewBox="0 0 545.68 758.2"><defs><style>.cls-1,.cls-3{fill:none;}.cls-2{clip-path:url(#clip-path);}.cls-3{stroke:#ff1616;stroke-width:0.76px;}.cls-12,.cls-13,.cls-14,.cls-15,.cls-16,.cls-17,.cls-18,.cls-25,.cls-26,.cls-3{stroke-miterlimit:3.79;}.cls-25,.cls-4{fill:#020100;}.cls-12,.cls-13,.cls-14,.cls-15,.cls-16,.cls-17,.cls-18,.cls-22,.cls-24,.cls-27,.cls-4{stroke:#000;}.cls-4{stroke-linejoin:bevel;stroke-width:2.13px;}.cls-5,.cls-6,.cls-8,.cls-9{isolation:isolate;}.cls-5{opacity:0.4;fill:url(#linear-gradient);}.cls-6{opacity:0.48;fill:url(#linear-gradient-2);}.cls-7{fill:url(#linear-gradient-3);}.cls-8,.cls-9{opacity:0.55;}.cls-20,.cls-22,.cls-26,.cls-9{fill:#fff;}.cls-10{fill:#ccc;}.cls-11{fill:#f8f8f8;}.cls-12,.cls-15{fill:#e6e6e6;}.cls-12,.cls-26{stroke-width:0.35px;}.cls-13,.cls-16{fill:#999;}.cls-13{stroke-width:0.32px;}.cls-14,.cls-18{fill:#4d4d4d;}.cls-14{stroke-width:0.28px;}.cls-15,.cls-16,.cls-17,.cls-18{stroke-width:0.43px;}.cls-17{fill:#666;}.cls-19{stroke:#fff;stroke-width:3.03px;}.cls-21{fill:snow;}.cls-22{stroke-width:0.84px;}.cls-23{fill:#020202;}.cls-24{stroke-miterlimit:20;stroke-width:1.57px;fill:url(#linear-gradient-4);}.cls-25,.cls-26{stroke:snow;}.cls-25{stroke-width:5.26px;}.cls-27{stroke-miterlimit:10;stroke-width:5px;}.cls-28{fill:#fff200;}</style><clipPath id="clip-path"><rect class="cls-1" x="54.75" width="441.98" height="441.98"/></clipPath><linearGradient id="linear-gradient" x1="1341.3743" y1="1600.9519" x2="1472.4944" y2="1435.6519" gradientTransform="translate(2047.09 2785.1999) rotate(180) scale(1.22 1.67)" gradientUnits="userSpaceOnUse"><stop offset="0" stop-color="#fff"/><stop offset="1" stop-color="#fff" stop-opacity="0"/></linearGradient><linearGradient id="linear-gradient-2" x1="-149.3889" y1="1587.0229" x2="-23.1189" y2="1437.363" gradientTransform="matrix(1.22, 0, 0, -1.67, 329.62, 2785.1999)" xlink:href="#linear-gradient"/><linearGradient id="linear-gradient-3" x1="-44.1926" y1="1352.9575" x2="-44.1926" y2="1219.8575" gradientTransform="matrix(1.22, 0, 0, -2.29, 329.62, 3199.27)" xlink:href="#linear-gradient"/><linearGradient id="linear-gradient-4" x1="640.2283" y1="1073.303" x2="750.0983" y2="890.633" gradientTransform="matrix(2.43, 0, 0, -2.54, -1346.8099, 2796.61)" gradientUnits="userSpaceOnUse"><stop offset="0" stop-color="#ffec00"/><stop offset="1" stop-color="#ff7300"/></linearGradient></defs><g class="cls-2"><g id="g841"><g id="g2793"><circle id="circle4851" class="cls-3" cx="275.74" cy="220.99" r="204.5"/><path id="rect2676" class="cls-4" d="M275.74,2.63C155.1155,2.5867,57.2949,100.3371,57.2516,220.9616S154.9587,439.4067,275.5833,439.45s218.445-97.7071,218.4883-218.3316A218.41,218.41,0,0,0,275.74,2.63Z"/><g id="g1042"><path id="path2431" class="cls-5" d="M359.47,375.11H156.37L427.29,127.59Z"/><path id="path1662" class="cls-6" d="M191.94,374.33l206.55.83L125.56,139.66Z"/><path id="path1653" class="cls-7" d="M398.49,375.11H152.92L275.74,54.17Z"/><g id="g1986"><ellipse id="ellipse1982" class="cls-8" cx="275.71" cy="374.05" rx="122.77" ry="9.57"/><ellipse id="ellipse1968" class="cls-9" cx="275.71" cy="374.05" rx="122.77" ry="9.57"/></g><ellipse id="path2435" class="cls-10" cx="277.18" cy="375.57" rx="83.08" ry="3.51"/></g><ellipse id="path2300" class="cls-11" cx="275.74" cy="58.21" rx="5.04" ry="4.14"/><g id="g2451"><g id="g2043"><g id="g2032"><path id="path2015" class="cls-12" d="M129.09,170.34l-16.78,3.31a169.32,169.32,0,0,0,52.37,176.28Z"/><path id="path2008" class="cls-13" d="M115.62,173l-3.31.65a168.79,168.79,0,0,0,34.92,158.71Z"/><path id="path1993" class="cls-14" d="M107.17,198.38a164.78,164.78,0,0,0,21.38,107.74Z"/></g><g id="g2027"><path id="path2262" class="cls-15" d="M258.32,51.8A170.27,170.27,0,0,0,108.68,188.66C185.32,184.7,248.24,127.14,258.32,51.8Z"/><path id="path2264" class="cls-16" d="M242.26,54.21A170.34,170.34,0,0,0,112.46,173C178.12,167.5,231.57,118.54,242.26,54.21Z"/><path id="path2266" class="cls-17" d="M225.02,58.64a170.33,170.33,0,0,0-106.66,97.59C170.95,148.81,213.43,110,225.02,58.64Z"/><path id="path2268" class="cls-18" d="M203.96,66.81a170,170,0,0,0-75.66,69.33A109.18,109.18,0,0,0,203.96,66.81Z"/></g></g><g id="g2403"><g id="g2391"><path id="path2385" class="cls-12" d="M422.4,170.34l16.77,3.31a169.32,169.32,0,0,1-52.38,176.28Z"/><path id="path2387" class="cls-13" d="M435.86,173l3.31.65a168.79,168.79,0,0,1-34.92,158.71Z"/><path id="path2389" class="cls-14" d="M444.32,198.38a165,165,0,0,1-21.38,107.74Z"/></g><g id="g2401"><path id="path2393" class="cls-15" d="M293.16,51.8A170.27,170.27,0,0,1,442.84,188.66C366.17,184.7,303.24,127.14,293.16,51.8Z"/><path id="path2395" class="cls-16" d="M309.22,54.21A170.35,170.35,0,0,1,439.03,173C373.37,167.5,319.91,118.54,309.22,54.21Z"/><path id="path2397" class="cls-17" d="M326.46,58.64a170.31,170.31,0,0,1,106.66,97.59C380.53,148.81,338.05,110,326.46,58.64Z"/><path id="path2399" class="cls-18" d="M347.52,66.81a170,170,0,0,1,75.67,69.33A109.19,109.19,0,0,1,347.52,66.81Z"/></g></g></g><g id="g1511"><g id="g978"><path id="path893" class="cls-19" d="M223.82,247.37c19.89,25,70.33,6.56,70.68,4,0,0,51.85-14.62,76.83-31.1,10.4,187.91-102.71,193.05-147.51,27.11Z"/><path id="path895" class="cls-20" d="M352.84,325.27c-27.08-6.35-47.59-1.85-69.5,12.13C286.48,304.09,333.02,287.96,352.84,325.27Z"/><path id="path897" class="cls-21" d="M297.02,267.2c-.28,23-26.94,30.32-38.8,14.27C271.83,281,284.8,279.26,297.02,267.2Z"/><path id="path899" class="cls-20" d="M356.96,263.56c-7.75,21.55-35.28,19.44-41.28.29C328.68,268.06,341.6,270.77,356.96,263.56Z"/></g><g id="g1858"><path id="path851" class="cls-22" d="M166.58,155.85c41.65,7.44,85.19,8,139.5-31.38C324.57,311.7,218.55,319.59,166.58,155.85Z"/><path id="path857" class="cls-23" d="M221.51,223.31c27.29,5.14,47.67-.36,68.95-15.23C288.66,241.58,242.88,259.75,221.51,223.31Z"/><path id="path859" class="cls-23" d="M200.06,197.52c5.12-22.39,32.68-23.68,40.93-5.41C227.53,189.54,214.51,188.53,200.06,197.52Z"/><path id="path877" class="cls-23" d="M260.03,187.89c1-22.95,27.91-29.37,39.23-12.95C285.68,174.85,272.59,176.23,260.03,187.89Z"/></g><path id="path1156" class="cls-24" d="M330.2,85.77c-4.21,6-51.74,56-98.58,58.45-51.11,2.71-76.83-2.6-93.5-10.44,27,40.4,124.42,33.55,163.59-4.13,7.09,37.57,3.92,76.79-7.73,101.14C287.52,244.36,278.92,253,268.6,256s-27.23,2.78-44.77-8.67l-22.72-16.27c33.11,106.51,77.29,145.43,136,140.12,40.61-2,64.89-55.91,64.89-55.91s-27,40.81-60.91,40.22c-22.09-.35-42.92-9.73-60.45-26.65-13.85-13.39-26.31-32.67-39.63-58.21,11.59,3.77,22.38,4.13,32.13,1.18,15.8-4.72,27.57-17.58,35.36-33.85,14.78-31.05,17.72-76.76,8.18-119.46C326.92,100.46,330.2,85.77,330.2,85.77Z"/></g><path id="circle4923" class="cls-25" d="M275.74,2.63C155.15,2.63,57.38,100.4,57.38,221s97.77,218.36,218.36,218.36S494.1,341.58,494.1,221,396.33,2.63,275.74,2.63Zm0,48.09A170.27,170.27,0,1,1,105.47,221,170.27,170.27,0,0,1,275.74,50.72Z"/><g id="text4880"><path id="path366" class="cls-26" d="M120.43,115.15l-1.33-1,1-1.92-12-9.12-1.57,1.48-1.33-1,5.16-6.79a8.84,8.84,0,0,1,2.63-2.43,4.66,4.66,0,0,1,2.75-.65,5.51,5.51,0,0,1,2.77,1.14,5.2309,5.2309,0,0,1,1.8,2.28,4.5906,4.5906,0,0,1,.14,2.68,8,8,0,0,1-1.43,2.89l-2.52,3.47,5.18,3.93,1.57-1.48,1.32,1Zm7.63-10-10.19-2.4,1.57-2.08,8.22,1.8,1-.9,1.36,1ZM114.87,105l2.15-2.82a4.65,4.65,0,0,0,1.25-3,2.9,2.9,0,0,0-1.32-2.23,3.09,3.09,0,0,0-2.46-.69A4.28,4.28,0,0,0,112,98l-2.28,3Z"/><path id="path368" class="cls-26" d="M134.79,97.64a4.84,4.84,0,0,1-3.11,1.77,4,4,0,0,1-3-1.18,3.71,3.71,0,0,1-1.25-2.14,4.69,4.69,0,0,1,.29-2.63,9.1691,9.1691,0,0,1,1.85-2.88l1.69-1.87-1-.94a2.58,2.58,0,0,0-2-.75,3.32,3.32,0,0,0-2,1.14,4.5889,4.5889,0,0,0-.86,1.29,5.791,5.791,0,0,0-.38,1.29l1.29,1.53-1.36,1.49-2.4-2.2a6.3206,6.3206,0,0,1,.64-2.44,9.6115,9.6115,0,0,1,1.6-2.35,6,6,0,0,1,3.66-2.17,4.47,4.47,0,0,1,3.61,1.29l5.07,4.59.4.38a2.92,2.92,0,0,0,.44.32l1-.92,1.22,1.1-2.51,2.77-.89-.56a6.6333,6.6333,0,0,1-.75-.56,6.4407,6.4407,0,0,1-.06,2.47,6.3691,6.3691,0,0,1-1.23,2.16Zm-1.37-1.75a4.93,4.93,0,0,0,1.13-2.14,3.94,3.94,0,0,0-.07-2.12l-1.88-1.74-1.78,2a3.8,3.8,0,0,0-1.14,2.49,2.72,2.72,0,0,0,.82,2,1.75,1.75,0,0,0,1.45.53,2.56,2.56,0,0,0,1.5-1Z"/><path id="path370" class="cls-26" d="M141.52,89.84l-1.12-1.21,1.34-1.71-6.9-7.44-1.81,1.2-1.15-1.22,3.26-3,1.54,1.4a4.9992,4.9992,0,0,1,.12-2.48,4.5806,4.5806,0,0,1,1.37-2.12,4.64,4.64,0,0,1,3.53-1.43A5.93,5.93,0,0,1,145.47,74l4.71,5.09,1.82-1.2,1.11,1.21-5,4.67L147,82.56l1.33-1.71-4.65-5.07a3.72,3.72,0,0,0-2.37-1.44,2.88,2.88,0,0,0-2.18,1A4.06,4.06,0,0,0,137.99,77a3.71,3.71,0,0,0,0,2l5.69,6.17,1.81-1.2,1.11,1.21Z"/><path id="path372" class="cls-26" d="M162.87,78.72a7.9982,7.9982,0,0,1-1.94,1.12,8.7509,8.7509,0,0,1-2.14.7l-.69-2a8.25,8.25,0,0,0,1.75-.55,7.5092,7.5092,0,0,0,1.68-1,3,3,0,0,0,1.41-2.3A4.18,4.18,0,0,0,161.85,72l-.81-1.07a4.28,4.28,0,0,1-.5,2.07,5.61,5.61,0,0,1-4.37,2.91,5.6892,5.6892,0,0,1-3-.7,9.6005,9.6005,0,0,1-2.74-2.4l-.16-.23A10.9993,10.9993,0,0,1,148.33,69a5.8,5.8,0,0,1-.1-3.29,5.37,5.37,0,0,1,4-3.63,5,5,0,0,1,2.28.16l-.9-1.54,1.73-1.34,8.61,11.06a7.18,7.18,0,0,1,1.4,2.92,4.68,4.68,0,0,1-.34,2.85,7.17,7.17,0,0,1-2.12,2.49Zm-4.58-6a3.49,3.49,0,0,0,1.22-1.61,3.73,3.73,0,0,0,.1-2l-4-5.16a4.36,4.36,0,0,0-1.9-.35,3.69,3.69,0,0,0-1.84.76,3.08,3.08,0,0,0-1.2,1.84,4.1413,4.1413,0,0,0,.23,2.27A10.0836,10.0836,0,0,0,152.31,71l.16.23a5.67,5.67,0,0,0,2.81,2.15,3.22,3.22,0,0,0,3-.67Zm-2-11.44-2.1-1.06,2.51-2,1,1.31Z"/><path id="path374" class="cls-26" d="M178.07,61.62a11.0021,11.0021,0,0,1-3.15,1.29,12.0006,12.0006,0,0,1-3.47.25l-2.1-3.49,1.72-1.05L172.99,61a7.9978,7.9978,0,0,0,2-.27,8.2525,8.2525,0,0,0,2-.88,5.5,5.5,0,0,0,1.7-1.48,3.14,3.14,0,0,0,.64-1.69,2.94,2.94,0,0,0-.45-1.68,2.83,2.83,0,0,0-2.95-1.39,12.0506,12.0506,0,0,0-2.71.59,13.3721,13.3721,0,0,1-3.5.7,6.0606,6.0606,0,0,1-2.73-.53,4.6,4.6,0,0,1-1.9-1.79,4.53,4.53,0,0,1-.72-2.7,5.58,5.58,0,0,1,.91-2.74,7.8507,7.8507,0,0,1,2.48-2.32,10.1405,10.1405,0,0,1,3.33-1.31,8.6,8.6,0,0,1,2.93-.07l2,3.29-1.72,1-1.79-2.1a5.41,5.41,0,0,0-1.67.1,6.4006,6.4006,0,0,0-2,.85A4.4694,4.4694,0,0,0,167.35,48a3.2,3.2,0,0,0-.57,1.59,2.81,2.81,0,0,0,.45,1.65,2.71,2.71,0,0,0,1.1,1,3.39,3.39,0,0,0,1.74.2,13.343,13.343,0,0,0,2.66-.58,10.07,10.07,0,0,1,5.06-.48,4.88,4.88,0,0,1,3.9,5,5.6,5.6,0,0,1-1,2.79,7.14,7.14,0,0,1-2.58,2.42Z"/><path id="path376" class="cls-26" d="M189.79,55.08a4.78,4.78,0,0,1-3.5.56A4.39,4.39,0,0,1,183.51,51a4.6,4.6,0,0,1,1.23-2.38,9.24,9.24,0,0,1,2.75-2l2.28-1.12-.62-1.24a2.56,2.56,0,0,0-1.61-1.43,2.83,2.83,0,0,0-2.27.36,4.53,4.53,0,0,0-2.08,2l.64,1.89-1.79.88L180.6,45a6.75,6.75,0,0,1,1.46-2,10.0011,10.0011,0,0,1,2.34-1.63,6,6,0,0,1,4.18-.69,4.41,4.41,0,0,1,2.89,2.5l3,6.12c.07.17.18.32.25.49a3.2778,3.2778,0,0,0,.26.46l1.29-.5.73,1.48-3.32,1.6c-.23-.32-.44-.58-.61-.86a5.8519,5.8519,0,0,1-.49-.77,6.1692,6.1692,0,0,1-1,2.28,4.94,4.94,0,0,1-1.85,1.6ZM189.17,53A4.6192,4.6192,0,0,0,191,51.38a4.15,4.15,0,0,0,.71-2L190.56,47l-2.35,1.16a3.79,3.79,0,0,0-2,2,2.69,2.69,0,0,0,0,2.11,1.82,1.82,0,0,0,1.14,1,2.4,2.4,0,0,0,1.78-.33Z"/><path id="path378" class="cls-26" d="M198.87,50.24l-.62-1.53,1.86-1.13-3.74-9.41-2.11.46-.58-1.53,4.14-1.65.94,1.9a5.32,5.32,0,0,1,1-2.27,4.55,4.55,0,0,1,2-1.48,4.79,4.79,0,0,1,3.82-.06,5.84,5.84,0,0,1,2.71,3.4l2.57,6.46,2.12-.46.61,1.53L207.19,47l-.61-1.54,1.85-1.12L205.9,38a3.66,3.66,0,0,0-1.68-2.2,2.91,2.91,0,0,0-2.4.11,3.48,3.48,0,0,0-1.62,1.23,3.7608,3.7608,0,0,0-.72,1.86l3.08,7.75,2.11-.45.61,1.53Z"/><path id="path380" class="cls-26" d="M220.91,42.49a11.8311,11.8311,0,0,1-2.66.5,13.9971,13.9971,0,0,1-2.78-.09l-1-3.22,1.88-.56,1.07,1.81a7.4043,7.4043,0,0,0,1.49,0,8.8,8.8,0,0,0,1.47-.31,3.18,3.18,0,0,0,2-1.23,2,2,0,0,0,.23-1.64,1.76,1.76,0,0,0-1.07-1.14,5.6894,5.6894,0,0,0-2.67-.23,9,9,0,0,1-4.08-.4,3.5,3.5,0,0,1-1.89-4.37,4.37,4.37,0,0,1,1.36-1.95,6.53,6.53,0,0,1,2.42-1.33,8.4308,8.4308,0,0,1,2.74-.44,5.94,5.94,0,0,1,2.2.36l1.06,3-1.85.58-.94-1.69a3.71,3.71,0,0,0-1.19-.2,5.3189,5.3189,0,0,0-1.43.25,3.11,3.11,0,0,0-1.73,1.13,1.7,1.7,0,0,0-.3,1.55,1.53,1.53,0,0,0,.46.76,2,2,0,0,0,1,.4,7.4008,7.4008,0,0,0,1.91,0,10,10,0,0,1,4.47.47,3.51,3.51,0,0,1,1.91,2.17,4,4,0,0,1-.4,3.28,6.12,6.12,0,0,1-3.69,2.49Z"/><path id="path382" class="cls-26" d="M228.02,40l-.34-1.59,2-.82-3.53-16-2.17.08-.3-1.67,4.63-1,4,18,2.18-.08.34,1.62Zm8.93-2-.35-1.62,1.38-.5h-.06l-5.16-4.3.85-2.31,7.16,5.86,2.09-.14.34,1.62Zm-5.37-3-1.38-1.8,4.7-7.34.06-.09-1.51.16-.34-1.62,6-1.31.34,1.62-1.69.72Z"/><path id="path384" class="cls-26" d="M249,36.2a4.81,4.81,0,0,1-3.48-.61,4.05,4.05,0,0,1-1.55-2.89,3.7607,3.7607,0,0,1,.42-2.42,5.19,5.19,0,0,1,1.92-1.85,8.63,8.63,0,0,1,3.27-1l2.51-.34-.19-1.39a2.61,2.61,0,0,0-1-1.88,3,3,0,0,0-2.26-.4,4.8724,4.8724,0,0,0-1.49.42,3.9409,3.9409,0,0,0-1.11.75v2l-2,.25-.44-3.22a6.18,6.18,0,0,1,2.08-1.48,9.23,9.23,0,0,1,2.75-.78,6.08,6.08,0,0,1,4.17.66,4.35,4.35,0,0,1,1.93,3.3l.92,6.78a1.9111,1.9111,0,0,0,.1.53c0,.18.08.35.09.53h1.38l.21,1.62-3.67.5a8.9973,8.9973,0,0,1-.31-1l-.2-.89a5.9109,5.9109,0,0,1-1.67,1.84,4.49,4.49,0,0,1-2.33,1Zm.1-2.19a4.66,4.66,0,0,0,2.24-.93,3.77,3.77,0,0,0,1.34-1.68l-.35-2.56-2.65.36a3.8,3.8,0,0,0-2.54,1.21,2.35,2.35,0,0,0-.62,2,1.81,1.81,0,0,0,.78,1.34,2.61,2.61,0,0,0,1.78.27Z"/><path id="path386" class="cls-26" d="M259.13,34.7l-.12-1.65,2.11-.5-.67-10.11-2.16-.21-.1-1.68,4.43-.28.33,1.78.06.25a4.7185,4.7185,0,0,1,1.38-1.81,3.5694,3.5694,0,0,1,2-.74,8.0055,8.0055,0,0,1,.84,0,2.7525,2.7525,0,0,1,.62.09l-.2,2.42h-1.8a2.5,2.5,0,0,0-1.69.59,3.3314,3.3314,0,0,0-1,1.48l.53,8,2.16.21.12,1.64Z"/><path id="path388" class="cls-26" d="M281.85,34.05l.07-1.66,2.16-.26.73-15.1-4.34-.21-.49,2.62-1.93-.11.22-4.62,15.87.79-.22,4.62-1.9-.09-.27-2.68-4.34-.21-.73,15.1,2.12.48-.07,1.66Z"/><path id="path390" class="cls-26" d="M295.16,34.8l.22-1.65h2.16l2.34-16.25-2.05-.65.22-1.65,4.67.68-1.15,8.08a5.271,5.271,0,0,1,2-1.33,5,5,0,0,1,2.43-.21,4.5,4.5,0,0,1,3.29,1.85,5.91,5.91,0,0,1,.65,4.32l-1,6.83,2.05.65-.22,1.65-6.78-1,.22-1.64h2.16l1-6.83a3.4894,3.4894,0,0,0-.4-2.67,2.81,2.81,0,0,0-2.09-1.15,4.15,4.15,0,0,0-2,.23,4.2619,4.2619,0,0,0-1.62,1.15l-1.19,8.39,2.06.66-.23,1.64Z"/><path id="path392" class="cls-26" d="M318.59,39.1a6.28,6.28,0,0,1-3.14-1.63,6.15,6.15,0,0,1-1.63-2.94,8,8,0,0,1,0-3.8l.14-.55a7.64,7.64,0,0,1,1.61-3.32,6.8791,6.8791,0,0,1,2.72-1.95,5.27,5.27,0,0,1,3.16-.23,5.89,5.89,0,0,1,2.94,1.47,5.07,5.07,0,0,1,1.43,2.6,8.1513,8.1513,0,0,1-.1,3.42l-.35,1.56-9-2.07v.06a6.1091,6.1091,0,0,0-.07,2.47,3.5194,3.5194,0,0,0,.93,1.9,3.64,3.64,0,0,0,1.86,1,6.0911,6.0911,0,0,0,2.33.15,5.9307,5.9307,0,0,0,1.92-.62l.61,1.87a6.08,6.08,0,0,1-2.26.75,8.42,8.42,0,0,1-3.12-.18Zm-1.65-9.41,6.39,1.46.08-.33a4,4,0,0,0,0-1.84,2.77,2.77,0,0,0-.76-1.49,3,3,0,0,0-1.63-.86,2.7994,2.7994,0,0,0-1.66.15,3.9988,3.9988,0,0,0-1.45,1.08,5.66,5.66,0,0,0-1,1.78Z"/><path id="path394" class="cls-26" d="M330.37,42.21a4.66,4.66,0,0,1-2.89-2,4.13,4.13,0,0,1-.2-3.27,4,4,0,0,1,1.4-2,4.54,4.54,0,0,1,2.52-.83,8.5392,8.5392,0,0,1,3.37.45l2.42.76.4-1.32a2.57,2.57,0,0,0-.15-2.14,3.07,3.07,0,0,0-1.89-1.31,4.8013,4.8013,0,0,0-1.55-.25,4.3306,4.3306,0,0,0-1.31.2l-.81,1.76-1.91-.61,1-3.09a6.49,6.49,0,0,1,2.49-.44,9.4013,9.4013,0,0,1,2.82.45A6.28,6.28,0,0,1,339.53,31a4.41,4.41,0,0,1,.37,3.81l-2,6.55c-.07.17-.1.36-.15.5a2.8239,2.8239,0,0,0-.11.52l1.27.55-.48,1.57-3.56-1.09a5.1963,5.1963,0,0,1,.15-1.06l.19-.9a6,6,0,0,1-2.27,1,5.71,5.71,0,0,1-2.54-.15Zm1-2a4.59,4.59,0,0,0,2.43.13,3.8,3.8,0,0,0,1.89-1l.79-2.34-2.49-.76a3.82,3.82,0,0,0-2.82,0,2.58,2.58,0,0,0-1.4,1.55,1.68,1.68,0,0,0,.14,1.53,2.4,2.4,0,0,0,1.48,1Z"/><path id="path396" class="cls-26" d="M344.84,47.13a3.28,3.28,0,0,1-2-1.76,4.11,4.11,0,0,1,.21-3.11l3.07-8.06-2.09-.8.69-1.78,2.09.8,1.23-3.18,2.4.92-1.23,3.18,2.88,1.09-.69,1.77-2.88-1.09-3.07,8.07a2.34,2.34,0,0,0-.17,1.55,1.3,1.3,0,0,0,.85.83,5.9014,5.9014,0,0,0,1,.27l.87.16-.32,1.71a11.1643,11.1643,0,0,1-1.4-.2,4.8688,4.8688,0,0,1-1.47-.37Z"/><path id="path398" class="cls-26" d="M349.11,48.58l.68-1.49,2.08.55L356,38.37l-1.79-1.21.66-1.54,4.05,1.82-.54,1.74-.08.25a5.1591,5.1591,0,0,1,2.05-1,3.5,3.5,0,0,1,2.13.27,6.0049,6.0049,0,0,1,.72.41,3.0037,3.0037,0,0,1,.5.35l-1.28,2-1.6-.84a2.28,2.28,0,0,0-1.76-.25,3.5106,3.5106,0,0,0-1.55.85l-3.29,7.33,1.79,1.21-.68,1.49Z"/><path id="path400" class="cls-26" d="M364.74,56.32a6.31,6.31,0,0,1-2.61-2.41,6.21,6.21,0,0,1-.83-3.28,8.281,8.281,0,0,1,1-3.66l.28-.5a7.79,7.79,0,0,1,2.41-2.83,6.4,6.4,0,0,1,3.12-1.18,5.26,5.26,0,0,1,3.12.6,5.68,5.68,0,0,1,2.45,2.18,5,5,0,0,1,.71,2.86,7.6007,7.6007,0,0,1-1,3.26l-.71,1.42-8.14-4.3h-.07a6.2492,6.2492,0,0,0-.71,2.36,3.81,3.81,0,0,0,.39,2.08,3.38,3.38,0,0,0,1.53,1.51,7.0012,7.0012,0,0,0,2.21.75,5,5,0,0,0,2-.11l.14,2a6.19,6.19,0,0,1-2.36.18,6.31,6.31,0,0,1-2.9-.88Zm.84-9.52,5.78,3,.14-.29a4,4,0,0,0,.53-1.79,2.79,2.79,0,0,0-.34-1.62,2.9106,2.9106,0,0,0-1.35-1.23,2.8,2.8,0,0,0-1.66-.27,3.9,3.9,0,0,0-1.65.67,6.9308,6.9308,0,0,0-1.47,1.45Z"/><path id="path402" class="cls-26" d="M384.19,68.19a8.51,8.51,0,0,1-3.09-3.6,8.061,8.061,0,0,1-.53-4.5,11.33,11.33,0,0,1,2-4.74l.17-.27a11.3512,11.3512,0,0,1,3.73-3.57,8.3509,8.3509,0,0,1,4.33-1.15,7.38,7.38,0,0,1,4.12,1.36,12.0985,12.0985,0,0,1,2.81,2.57,9.41,9.41,0,0,1,1.41,2.63l-2.2,3.16-1.74-1.22,1.35-2.42a4.63,4.63,0,0,0-.95-1.4,8.7777,8.7777,0,0,0-1.69-1.45,4.9,4.9,0,0,0-3-.88,6.66,6.66,0,0,0-3.21,1,9.86,9.86,0,0,0-2.87,2.8l-.17.27a10.23,10.23,0,0,0-1.68,3.7,6.08,6.08,0,0,0,.19,3.35,5.75,5.75,0,0,0,2.17,2.64,8.8086,8.8086,0,0,0,2,1.07,8.4519,8.4519,0,0,0,1.66.4l2.55-3.71L388.61,62l1.07-1.54L394.83,64l-4.15,6.06a7.65,7.65,0,0,1-2.78-.17,9.26,9.26,0,0,1-3.66-1.7Z"/><path id="path404" class="cls-26" d="M391.6,73.18l1-1.3,1.89,1.05,6.37-7.9-1.45-1.63,1-1.3,3.46,2.81-1,1.55-.13.22a4.51,4.51,0,0,1,2.24-.38,3.49,3.49,0,0,1,2,.8c.19.17.4.38.6.59a2.5837,2.5837,0,0,1,.4.51l-1.76,1.66-1.32-1.21a2.62,2.62,0,0,0-1.63-.73,3.26,3.26,0,0,0-1.72.45l-5.05,6.27,1.45,1.63-1,1.3Z"/><path id="path406" class="cls-26" d="M404.68,84.64a6.05,6.05,0,0,1-1.86-3,6.25,6.25,0,0,1,.12-3.37,8.8712,8.8712,0,0,1,2-3.27l.19-.22a8.89,8.89,0,0,1,3.09-2.23,6.23,6.23,0,0,1,3.36-.4,6,6,0,0,1,3.11,1.62,6.1307,6.1307,0,0,1,1.86,3,6,6,0,0,1-.12,3.37,8.4592,8.4592,0,0,1-2,3.27l-.18.23a8.93,8.93,0,0,1-3.1,2.22,6.11,6.11,0,0,1-3.33.37A5.88,5.88,0,0,1,404.68,84.64Zm1.38-1.46a3.19,3.19,0,0,0,2,.9,4.1694,4.1694,0,0,0,2.18-.5,8.4707,8.4707,0,0,0,2.15-1.66l.19-.23a7.61,7.61,0,0,0,1.49-2.24,4.1208,4.1208,0,0,0,.33-2.22,3.18,3.18,0,0,0-1.06-1.9,3.1407,3.1407,0,0,0-2-.9,3.92,3.92,0,0,0-2.18.49,7.3981,7.3981,0,0,0-2.13,1.69l-.18.22a7.8185,7.8185,0,0,0-1.5,2.25,4.31,4.31,0,0,0-.33,2.22,3,3,0,0,0,1,1.88Z"/><path id="path408" class="cls-26" d="M414.92,94.93a4.49,4.49,0,0,1-1.35-3.66,6.88,6.88,0,0,1,2.51-4.07l4.69-4.28-.83-1.46,1.23-1.14,1.11,1.21,1.74,1.9-6.2,5.67a5.34,5.34,0,0,0-1.86,2.62,2.43,2.43,0,0,0,.8,2.11,4.32,4.32,0,0,0,1.92,1.31,3.52,3.52,0,0,0,2.08-.06l6-5.56-1-1.65,1.23-1.14,1.28,1.41,1.74,1.9-9,8.21.82,1.46-1.2,1.11-2.68-2.92,1.45-1.55a4.59,4.59,0,0,1-2.45-.1,4.19,4.19,0,0,1-2.11-1.32Z"/><path id="path410" class="cls-26" d="M417.34,105.29l1.31-1,1.52,1.38,12.35-9.51-1-1.91,1.32-1,2.67,3.46L434.28,98a4.83,4.83,0,0,1,2.22.46,5.51,5.51,0,0,1,1.84,1.54,4.5294,4.5294,0,0,1,1.07,3,5.6493,5.6493,0,0,1-1,3.14,12.31,12.31,0,0,1-2.77,3l-.22.15a8.3794,8.3794,0,0,1-3.25,1.66,5.41,5.41,0,0,1-3,0,5.1494,5.1494,0,0,1-2.49-1.95,5.86,5.86,0,0,1-1.07-2.07,4.47,4.47,0,0,1,0-2.12l-3.88,3,1.08,2-1.31,1Zm10.46,1.77a3.16,3.16,0,0,0,2.74,1.38,5.84,5.84,0,0,0,3.34-1.39l.23-.16a9.682,9.682,0,0,0,2-2.08,4.2306,4.2306,0,0,0,.78-2.19,3,3,0,0,0-.71-2.05,3.26,3.26,0,0,0-1.5-1.19,3.7994,3.7994,0,0,0-1.84-.18l-5.46,4.22a3.72,3.72,0,0,0-.31,1.85,3,3,0,0,0,.75,1.79Z"/></g><g id="text1266"><path id="path1048" class="cls-20" d="M102.33,329.76l1.37-.94,1,1.05,18-4.33,1.26,1.83-10.47,15.22.65,1.26-1.37.94-3.1-4.53,1.36-.94,1,1,2.19-3L109.86,331l-3.64.95.62,1.33-1.37.94Zm9.72.74,3.43,5,4.81-6.74.25-.36v-.07l-.43.11Z"/><path id="path1050" class="cls-20" d="M123.6,358.08a7.55,7.55,0,0,1-1.77-3.13,6.25,6.25,0,0,1,0-3.27,6.52,6.52,0,0,1,2-3l8.12-7.33-1.15-1.83,1.22-1.12,4.58,5.1-1.22,1.12-1.7-1.32-8.12,7.33a4.94,4.94,0,0,0-1.43,2,3.6107,3.6107,0,0,0-.07,2.13,4.67,4.67,0,0,0,1.16,2,5.27,5.27,0,0,0,1.87,1.36,3.61,3.61,0,0,0,2.13.18,4.6393,4.6393,0,0,0,2.15-1.2l8.12-7.32-1.15-1.84,1.22-1.12,4.58,5.11L142.88,353l-1.69-1.33L133.07,359a6.69,6.69,0,0,1-3.2,1.7,5.5594,5.5594,0,0,1-3.24-.35,9.668,9.668,0,0,1-3-2.3Z"/><path id="path1052" class="cls-20" d="M131.21,365.88l1.11-1.23,1.84,1.18,6.9-7.46-1.38-1.73,1.11-1.22,3.29,3-1.3,1.66a5.28,5.28,0,0,1,2.49-.08,4.8215,4.8215,0,0,1,2.23,1.19,4.65,4.65,0,0,1,1.7,3.41,5.78,5.78,0,0,1-1.9,3.89l-4.7,5.09,1.33,1.73-1.11,1.22-5.05-4.67,1.11-1.22,1.84,1.18,4.67-5.05a3.76,3.76,0,0,0,1.26-2.45,2.93,2.93,0,0,0-1.13-2.12,3.42,3.42,0,0,0-1.83-.93,4.24,4.24,0,0,0-2,.15l-5.64,6.13,1.34,1.72-1.11,1.23Z"/><path id="path1054" class="cls-20" d="M144.09,377.51l1-1.3,1.87,1.08,6.39-7.86-1.44-1.66,1-1.29,3.68,3-7.68,9.44,1.44,1.66-1,1.29ZM156.8,365l1.76-2.17,2.09,1.73-1.76,2.16Z"/><path id="path1056" class="cls-20" d="M154.54,386a3.53,3.53,0,0,1-1.48-2.23,4.06,4.06,0,0,1,1-2.91l5.13-6.93-1.8-1.32,1.19-1.61,1.8,1.33,2.05-2.74,2.09,1.55-2.05,2.74,2.49,1.83-1.15,1.55-2.48-1.83-5.14,6.92a2.32,2.32,0,0,0-.57,1.44,1.41,1.41,0,0,0,.58,1,9.2115,9.2115,0,0,0,.86.54c.33.18.62.32.8.4l-.72,1.58c-.36-.14-.79-.32-1.3-.57a11.1318,11.1318,0,0,1-1.3-.83Z"/><path id="path1058" class="cls-20" d="M168.89,395.71a5.88,5.88,0,0,1-3-5.86,9.0606,9.0606,0,0,1,1.29-3.61l.14-.25a8.57,8.57,0,0,1,2.62-2.78,6.3007,6.3007,0,0,1,3.2-1,5.74,5.74,0,0,1,3.35,1,6.2705,6.2705,0,0,1,2.42,2.55,5.82,5.82,0,0,1,.55,3.34,9.28,9.28,0,0,1-1.29,3.61l-.14.25a9.0007,9.0007,0,0,1-2.62,2.81,6,6,0,0,1-3.21,1A6.39,6.39,0,0,1,168.89,395.71Zm1.08-1.73a3.11,3.11,0,0,0,2.12.5,4.2805,4.2805,0,0,0,2.05-.91,7.0009,7.0009,0,0,0,1.76-2.06l.15-.25a7.9408,7.9408,0,0,0,1-2.48,3.9209,3.9209,0,0,0-.12-2.24,3.47,3.47,0,0,0-1.4-1.68,3.09,3.09,0,0,0-2.13-.5,4,4,0,0,0-2,.9,7.74,7.74,0,0,0-1.76,2.06l-.14.25a7.891,7.891,0,0,0-1,2.49,3.89,3.89,0,0,0,.11,2.23,3.06,3.06,0,0,0,1.36,1.71Z"/><path id="path1060" class="cls-20" d="M176.03,399.58l.79-1.44,2.05.68,4.84-9.05-1.94-1,.91-1.77,2,1,.86-1.59a4.92,4.92,0,0,1,2.69-2.53,4.36,4.36,0,0,1,3.53.46,6.1744,6.1744,0,0,1,.79.54c.29.22.58.43.87.68l-1.22,1.59a9.682,9.682,0,0,0-1.19-.79,2.05,2.05,0,0,0-1.8-.21,2.94,2.94,0,0,0-1.4,1.48l-.86,1.58,2.74,1.47-.9,1.7L185.98,391l-4.84,9,2,1.48-.79,1.44Z"/><path id="path1062" class="cls-20" d="M190.23,406.93l.64-1.52,2.13.47L198.76,392l-1.84-1.15.65-1.51,7.85,3.26a8.28,8.28,0,0,1,3,1.93,4.67,4.67,0,0,1,1.33,2.48,5.16,5.16,0,0,1-.42,3,5.23,5.23,0,0,1-1.76,2.34,4.34,4.34,0,0,1-2.55.8,9.0005,9.0005,0,0,1-3.17-.64l-4-1.58-2.47,6,1.84,1.15-.65,1.51Zm11.64,4.83-.28-10.44,2.42,1,.34,8.42,1.12.72-.65,1.55ZM198.68,399l3.28,1.36a4.77,4.77,0,0,0,3.24.43,2.94,2.94,0,0,0,1.84-1.84,3.05,3.05,0,0,0,0-2.56,4.22,4.22,0,0,0-2.36-1.99l-3.5-1.43Z"/><path id="path1064" class="cls-20" d="M211.13,415.3a4.87,4.87,0,0,1-2.89-2,4.42,4.42,0,0,1,1.29-5.3,4.66,4.66,0,0,1,2.51-.83,9.17,9.17,0,0,1,3.39.5l2.41.78.43-1.33a2.52,2.52,0,0,0-.15-2.12,3.2806,3.2806,0,0,0-1.87-1.37,4.3414,4.3414,0,0,0-1.55-.25,5.2739,5.2739,0,0,0-1.33.19l-.86,1.8-1.91-.61,1-3.1a6.871,6.871,0,0,1,2.48-.43,9.5415,9.5415,0,0,1,2.81.46,6.14,6.14,0,0,1,3.5,2.4,4.33,4.33,0,0,1,.33,3.82l-2.14,6.55c-.08.18-.11.36-.18.51l-.11.5,1.26.57-.5,1.59-3.53-1.14a8.41,8.41,0,0,1,.14-1.05,7.17,7.17,0,0,1,.18-.9,6.2486,6.2486,0,0,1-2.27.94A4.32,4.32,0,0,1,211.13,415.3Zm1-1.94a4.6292,4.6292,0,0,0,2.41.14,4,4,0,0,0,1.91-.94l.78-2.45-2.48-.83a3.8,3.8,0,0,0-2.81,0,2.57,2.57,0,0,0-1.44,1.55,1.91,1.91,0,0,0,.12,1.55,2.85,2.85,0,0,0,1.51,1Z"/><path id="path1066" class="cls-20" d="M219.14,423.49a3.0018,3.0018,0,0,1-.72-.25,4.6378,4.6378,0,0,1-.65-.36l.68-1.87a2.58,2.58,0,0,0,.57.29c.29.1.51.18.65.21a1.33,1.33,0,0,0,1.37-.36,3.45,3.45,0,0,0,.93-1.66l3.43-12.89-2-.9.42-1.62,4.58,1.21-4,14.84a4.67,4.67,0,0,1-2,3,4.07,4.07,0,0,1-3.34.4Zm7.54-22.26.71-2.67,2.63.72-.71,2.66Z"/><path id="path1068" class="cls-20" d="M233.75,421.26l.28-1.62h2.16l2.6-14.84-2.06-.71.29-1.66,2.12.36,2.56.42,2.12.36-.28,1.65h-2.16l-2.6,14.87,6.67,1.17.82-2.91,1.94.35-.85,4.94Z"/><path id="path1070" class="cls-20" d="M255.75,424.78a6.11,6.11,0,0,1-3.28-1.25,6,6,0,0,1-1.91-2.77,8.8108,8.8108,0,0,1-.41-3.82v-.28a8.7608,8.7608,0,0,1,1.14-3.64,6.12,6.12,0,0,1,2.44-2.35,5.84,5.84,0,0,1,3.46-.58,6.0605,6.0605,0,0,1,3.28,1.25,6,6,0,0,1,1.95,2.77,8.86,8.86,0,0,1,.4,3.81v.29a9.1592,9.1592,0,0,1-1.15,3.68,5.83,5.83,0,0,1-2.44,2.31,6,6,0,0,1-3.49.58Zm.21-2a3.25,3.25,0,0,0,2.12-.47,4.1,4.1,0,0,0,1.44-1.74,7.1591,7.1591,0,0,0,.68-2.62v-.29a7.35,7.35,0,0,0-.18-2.7,3.9994,3.9994,0,0,0-1.09-2,3.34,3.34,0,0,0-2-.89,3.15,3.15,0,0,0-2.12.47,4,4,0,0,0-1.43,1.73,7.8886,7.8886,0,0,0-.68,2.59v.29a8.381,8.381,0,0,0,.15,2.7,4.09,4.09,0,0,0,1.09,2,3.4,3.4,0,0,0,2.02.95Z"/><path id="path1072" class="cls-20" d="M263.52,425.27v-1.66l2.16-.33.36-16.41-2.13-.43v-1.66l4.72.1-.43,18.43,2.13.43v1.65Zm9.11.19v-1.65l1.43-.15h0l-4-5.39,1.4-2,5.56,7.41,2.05.35v1.66Zm-4.47-4.2-.9-2.05,6.32-6,.07-.07-1.51-.21v-1.66l6.12.13v1.66l-1.84.29Z"/><path id="path1074" class="cls-20" d="M294.68,424.62l-8.07-16.5-1.55-.07-.14-1.66,6-.59.14,1.66-1.72.43,5.46,11.69.58,1.48h.07l.32-1.54L298.94,407l-1.94-.07-.15-1.65,6-.59.15,1.66-1.51.36-4.68,17.79Z"/><path id="path1076" class="cls-20" d="M306.25,423.23l-.29-1.62,2.05-.73-1.68-10h-2.16l-.29-1.65,4.64-.77,2,12h2.16l.29,1.62Zm-.94-17.78-.47-2.74,2.66-.44.47,2.74Z"/><path id="path1078" class="cls-20" d="M314.49,421.91l-.36-1.62,2-.83-3.71-16-2.16.11-.36-1.62,4.61-1.05,4.14,18,2.16-.11.36,1.62Zm8.89-2-.37-1.62,1.37-.51h0l-5.19-4.23.82-2.31,7.22,5.78,2.05-.15.36,1.62Zm-5.37-3-1.41-1.76,4.63-7.39v-.11l-1.51.19-.36-1.62,6-1.38.36,1.61-1.69.76Z"/><path id="path1080" class="cls-20" d="M335.11,417a4.67,4.67,0,0,1-3.53,0,4.42,4.42,0,0,1-2-5,4.69,4.69,0,0,1,1.58-2.13,9,9,0,0,1,3-1.55l2.41-.77-.4-1.33a2.46,2.46,0,0,0-1.33-1.65,3.14,3.14,0,0,0-2.31,0,4.2626,4.2626,0,0,0-1.4.69,4.7329,4.7329,0,0,0-1,.93l.33,2-1.91.58-1-3.09a6.6,6.6,0,0,1,1.8-1.77,8.7711,8.7711,0,0,1,2.59-1.23,6.38,6.38,0,0,1,4.25,0,4.39,4.39,0,0,1,2.45,2.94l2,6.51a4.6406,4.6406,0,0,1,.15.51c.07.18.1.32.18.5l1.36-.29.51,1.58-3.56,1.13c-.18-.36-.36-.65-.47-.94a9.1881,9.1881,0,0,1-.36-.86,6.28,6.28,0,0,1-1.33,2.09,4.8292,4.8292,0,0,1-2.08,1.3Zm-.3-2.16a4.36,4.36,0,0,0,2.05-1.3,3.85,3.85,0,0,0,1-1.87l-.77-2.45-2.51.8a3.67,3.67,0,0,0-2.3,1.62,2.55,2.55,0,0,0-.29,2.09,1.74,1.74,0,0,0,1,1.19,2.92,2.92,0,0,0,1.83-.08Z"/><path id="path1082" class="cls-20" d="M350.07,411.79a10.7347,10.7347,0,0,1-2.59.69,16.6171,16.6171,0,0,1-2.81.11l-1.23-3.13,1.83-.72,1.2,1.73a9.6122,9.6122,0,0,0,1.47-.12,5.5875,5.5875,0,0,0,1.44-.43,3.35,3.35,0,0,0,1.87-1.37,2,2,0,0,0,.1-1.66,1.8,1.8,0,0,0-1.15-1.08,6.0009,6.0009,0,0,0-2.7,0,9.3593,9.3593,0,0,1-4.1-.09,3.5,3.5,0,0,1-2.21-4.21,4.4408,4.4408,0,0,1,1.22-2,7,7,0,0,1,2.41-1.52,8.6077,8.6077,0,0,1,2.7-.65,7.7192,7.7192,0,0,1,2.23.17l1.3,3-1.8.69-1.08-1.62a3.29,3.29,0,0,0-1.19-.11,4.4888,4.4888,0,0,0-1.4.37,3.23,3.23,0,0,0-1.62,1.22,1.72,1.72,0,0,0-.18,1.59,1.5494,1.5494,0,0,0,.51.72,1.91,1.91,0,0,0,1,.32,10.0561,10.0561,0,0,0,1.91-.11,9.66,9.66,0,0,1,4.5.13,3.38,3.38,0,0,1,2.05,2.05,4,4,0,0,1-.07,3.24,6,6,0,0,1-3.56,2.78Z"/><path id="path1084" class="cls-20" d="M369.2,403.18a10.6288,10.6288,0,0,1-6.69,1.09l-1.83-3.63,1.8-.9,1.76,2.48a9.8947,9.8947,0,0,0,2-.11,7.9978,7.9978,0,0,0,2.05-.73,5.61,5.61,0,0,0,1.8-1.37,3.15,3.15,0,0,0,.75-1.62,2.85,2.85,0,0,0-.33-1.69,2.47,2.47,0,0,0-1.08-1.19,3.3908,3.3908,0,0,0-1.77-.39,10.7291,10.7291,0,0,0-2.73.4,12.558,12.558,0,0,1-3.53.44,5.7488,5.7488,0,0,1-2.7-.71,4.4593,4.4593,0,0,1-1.77-1.94,4.67,4.67,0,0,1-.51-2.74,5.63,5.63,0,0,1,1.11-2.66,7.87,7.87,0,0,1,2.63-2.13,8.6213,8.6213,0,0,1,3.41-1,8.88,8.88,0,0,1,3,.13l1.73,3.42-1.8.9L364.81,387a5.3726,5.3726,0,0,0-1.66,0,6.6714,6.6714,0,0,0-2.08.73,4.5206,4.5206,0,0,0-1.55,1.22,2.8729,2.8729,0,0,0-.35,3.25,2.17,2.17,0,0,0,1,1.07,3.11,3.11,0,0,0,1.73.32,14.07,14.07,0,0,0,2.7-.4,10.2505,10.2505,0,0,1,5.08-.19,4.69,4.69,0,0,1,3,2.51,4.55,4.55,0,0,1,.51,2.81,5.5393,5.5393,0,0,1-1.22,2.7,8.5287,8.5287,0,0,1-2.84,2.17Z"/><path id="path1086" class="cls-20" d="M380.81,396.75a4.78,4.78,0,0,1-3.45.83,4,4,0,0,1-2.6-2,3.81,3.81,0,0,1-.58-2.37,4.6894,4.6894,0,0,1,1-2.45,9.41,9.41,0,0,1,2.59-2.24l2.15-1.34L379.2,386a2.61,2.61,0,0,0-1.69-1.3,3,3,0,0,0-2.23.55,5.829,5.829,0,0,0-1.23,1,5.56,5.56,0,0,0-.71,1.12l.79,1.83-1.69,1.05-1.69-2.77a7.2379,7.2379,0,0,1,1.29-2.16,9.2387,9.2387,0,0,1,2.19-1.81,6,6,0,0,1,4.1-1.05,4.36,4.36,0,0,1,3.1,2.26l3.58,5.83c.11.14.18.32.29.46l.32.43,1.26-.57.87,1.4-3.17,2c-.25-.29-.5-.54-.68-.79a8.4277,8.4277,0,0,1-.54-.72,7.3494,7.3494,0,0,1-.75,2.34,6.3508,6.3508,0,0,1-1.84,1.7Zm-.79-2.05a4.67,4.67,0,0,0,1.68-1.77,3.76,3.76,0,0,0,.54-2.05l-1.34-2.2-2.22,1.38a3.79,3.79,0,0,0-1.83,2.12,2.61,2.61,0,0,0,.22,2.09,1.83,1.83,0,0,0,1.23.93,2.46,2.46,0,0,0,1.73-.5Z"/><path id="path1088" class="cls-20" d="M389.3,391.26l-1-1.33,1.51-1.55-6-8.24-1.94.95-1-1.37,3.59-2.6,1.37,1.62a4.67,4.67,0,0,1,.43-2.45,5.2,5.2,0,0,1,5.28-2.93,5.94,5.94,0,0,1,3.46,2.62l4.08,5.61,1.95-.94,1,1.33-5.57,4-1-1.33,1.5-1.55-4-5.57a3.83,3.83,0,0,0-2.16-1.72,2.89,2.89,0,0,0-2.31.69,3.5693,3.5693,0,0,0-1.29,1.59,4.1089,4.1089,0,0,0-.25,2l4.88,6.75,1.94-.94,1,1.33Z"/><path id="path1090" class="cls-20" d="M407.91,377.43a11.8529,11.8529,0,0,1-2.23,1.51,13.84,13.84,0,0,1-2.59,1l-2.2-2.55,1.51-1.27,1.7,1.26a6.2557,6.2557,0,0,0,1.36-.58,6.1883,6.1883,0,0,0,1.22-.8,3.38,3.38,0,0,0,1.32-1.91,2.11,2.11,0,0,0-.43-1.58,1.74,1.74,0,0,0-1.44-.64,6.5683,6.5683,0,0,0-2.56.83,9.23,9.23,0,0,1-3.92,1.23,3.26,3.26,0,0,1-2.63-1.25,3.5,3.5,0,0,1-.83-2,4.45,4.45,0,0,1,.5-2.3,6.82,6.82,0,0,1,1.79-2.2,9.1389,9.1389,0,0,1,2.34-1.48,6.2584,6.2584,0,0,1,2.16-.55l2.2,2.41-1.5,1.19-1.56-1.18a3.9126,3.9126,0,0,0-1.18.29,5.2308,5.2308,0,0,0-1.22.79,3.17,3.17,0,0,0-1.15,1.7,1.74,1.74,0,0,0,.32,1.58,2,2,0,0,0,.73.54,1.8389,1.8389,0,0,0,1.08,0,11.0535,11.0535,0,0,0,1.76-.72,9.1916,9.1916,0,0,1,4.31-1.31,3.53,3.53,0,0,1,2.64,1.26,4,4,0,0,1,.94,3.16,6.879,6.879,0,0,1-2.48,3.61Z"/><path id="path1092" class="cls-20" d="M417.18,369a3.34,3.34,0,0,1-2.44,1.05,4.14,4.14,0,0,1-2.71-1.54l-5.92-6.29-1.61,1.55-1.3-1.4,1.62-1.55-2.35-2.48,1.87-1.77,2.34,2.48,2.23-2.13,1.3,1.4-2.23,2.13,5.92,6.29a2.39,2.39,0,0,0,1.33.82,1.31,1.31,0,0,0,1.12-.39,7.4259,7.4259,0,0,0,.68-.76l.54-.72,1.41,1c-.18.33-.47.72-.79,1.19A11.0068,11.0068,0,0,1,417.18,369Z"/><path id="path1094" class="cls-20" d="M420.05,366.13,418.83,365l1.18-1.8-12-11.17-1.72,1.3-1.23-1.15,3.23-3.46,6,5.56a4.9088,4.9088,0,0,1,.07-2.41,5.12,5.12,0,0,1,1.18-2.13,4.64,4.64,0,0,1,3.41-1.66,5.93,5.93,0,0,1,3.93,1.94l5.05,4.66,1.73-1.3,1.22,1.12-4.66,5-1.23-1.11,1.18-1.8-5.05-4.71a3.7806,3.7806,0,0,0-2.41-1.22,2.88,2.88,0,0,0-2.16,1.09,3.76,3.76,0,0,0-.93,1.76,4.1486,4.1486,0,0,0,0,2l6.2,5.79,1.73-1.3,1.23,1.11Z"/><path id="path1096" class="cls-20" d="M434.89,349.87a5,5,0,0,1-2.95,2,3.91,3.91,0,0,1-3.1-1,3.86,3.86,0,0,1-1.37-2.05,4.7693,4.7693,0,0,1,.1-2.66,8.8887,8.8887,0,0,1,1.65-3l1.58-2-1.12-.86a2.47,2.47,0,0,0-2.06-.61,3.15,3.15,0,0,0-1.9,1.27,4.7394,4.7394,0,0,0-.79,1.33,4.3483,4.3483,0,0,0-.29,1.3l1.38,1.44-1.26,1.55-2.56-2a6.8474,6.8474,0,0,1,.46-2.49,8.8775,8.8775,0,0,1,1.44-2.45,6.22,6.22,0,0,1,3.48-2.42,4.4,4.4,0,0,1,3.68,1l5.33,4.27.44.32a2.3116,2.3116,0,0,0,.43.29l1-1,1.3,1.05-2.3,2.92c-.36-.18-.65-.36-.94-.51a8.58,8.58,0,0,1-.79-.5,6.3005,6.3005,0,0,1,.08,2.45,4.07,4.07,0,0,1-.93,2.31Zm-1.45-1.66a4.4309,4.4309,0,0,0,1-2.23,4.14,4.14,0,0,0-.22-2.12l-2-1.62-1.62,2.06a3.7094,3.7094,0,0,0-1,2.63,2.61,2.61,0,0,0,.94,1.87,1.69,1.69,0,0,0,1.48.42,2.23,2.23,0,0,0,1.47-1Z"/><path id="path1098" class="cls-20" d="M440.95,341.79l-1.37-.93.9-2-8.4-5.67-1.51,1.56-1.37-.94,2.47-3.67,1.84,1a5.35,5.35,0,0,1-.47-2.45,4.6687,4.6687,0,0,1,.86-2.38,4.79,4.79,0,0,1,3.09-2.2,5.81,5.81,0,0,1,4.14,1.29l5.77,3.87,1.51-1.55,1.37.93-3.84,5.7-1.37-.93.89-2-5.69-3.84a3.75,3.75,0,0,0-2.63-.85,2.86,2.86,0,0,0-1.91,1.44,3.3193,3.3193,0,0,0-.64,1.95,3.69,3.69,0,0,0,.47,1.94l6.92,4.66,1.51-1.55,1.37.93Z"/></g><circle class="cls-26" cx="79.88" cy="220.99" r="12.28"/><circle class="cls-26" cx="471.61" cy="220.99" r="12.28"/></g></g></g><path d="M126.79,449.83A50.3507,50.3507,0,0,1,142.31,452a31.5809,31.5809,0,0,1,11.42,6.31,26.9092,26.9092,0,0,1,7,9.84,33.2711,33.2711,0,0,1,2.4,12.94,39.1579,39.1579,0,0,1-1.71,11.35,29.21,29.21,0,0,1-5.55,10.35,27.5607,27.5607,0,0,1-10.15,7.5q-6.31,2.85-15.65,2.84H116.95V542.7H98.68V449.83Zm3.15,45.68a15.3711,15.3711,0,0,0,6.94-1.39,11.8913,11.8913,0,0,0,4.36-3.53,14.692,14.692,0,0,0,2.27-4.48,15.4386,15.4386,0,0,0,.69-4.35,21.9424,21.9424,0,0,0-.44-3.85,15.2886,15.2886,0,0,0-1.83-4.73,11.15,11.15,0,0,0-4.23-4,15.27,15.27,0,0,0-7.63-1.64H116.95v28Zm17.16,11.36,23,35.83H148.74l-23.47-35.33Z"/><path d="M174.73,542.7l41.89-96.53h1l41.89,96.53H238.33l-26.75-67.88,13.25-9.09-32.05,77Zm28.65-33.56h27.88l6.42,15.39h-40Z"/><path d="M356.18,546.48l-70.41-63.59,5.42,3,.38,56.78H273.02v-96.5h.76l68.9,63.35-4-1.77-.38-57.92h18.38v96.65Z"/><path d="M455.98,533.36a19.0842,19.0842,0,0,1-5.17,3.6,55.5957,55.5957,0,0,1-8.13,3.34,79.1509,79.1509,0,0,1-9.4,2.46,47.1471,47.1471,0,0,1-9.09,1,59.09,59.09,0,0,1-20.44-3.34A45.7,45.7,0,0,1,388.22,531a40.3,40.3,0,0,1-9.84-14.2,46.2405,46.2405,0,0,1-3.41-17.91q0-12.75,3.85-22.15A44.14,44.14,0,0,1,389.3,461.1a42.36,42.36,0,0,1,15.26-9.28,54.3385,54.3385,0,0,1,18.11-3,64.6248,64.6248,0,0,1,16.4,2,53.4693,53.4693,0,0,1,12.61,4.82l-5.93,17a36.3171,36.3171,0,0,0-6.06-2.52,68.1922,68.1922,0,0,0-7.69-2.08,34.0528,34.0528,0,0,0-6.94-.82,43.22,43.22,0,0,0-13.38,1.92,25.2217,25.2217,0,0,0-9.78,5.68,23.77,23.77,0,0,0-6,9.4,38.41,38.41,0,0,0-2,13.06,29.41,29.41,0,0,0,2.27,11.79,25.24,25.24,0,0,0,6.37,8.9,27.7392,27.7392,0,0,0,9.72,5.55,38.78,38.78,0,0,0,12.42,1.89,43.1891,43.1891,0,0,0,7.19-.56,17.5711,17.5711,0,0,0,5.55-1.83V511.79h-16V494.12h34.56Z"/><path d="M30.22,642.34a38.75,38.75,0,0,1-12.47-2.2A22.69,22.69,0,0,1,7.2,633l3.87-5.45a26.3793,26.3793,0,0,0,8.35,5.88,24.4416,24.4416,0,0,0,10.26,2.23,25.1835,25.1835,0,0,0,7.64-1.14,12.0908,12.0908,0,0,0,5.89-4,11.62,11.62,0,0,0,2.3-7.52q0-4.92-2.72-7.56a21.21,21.21,0,0,0-6.85-4.31q-4.14-1.67-8.7-3.07a35.1305,35.1305,0,0,1-12.39-6.68q-4.85-4.21-4.84-11.95a17.6992,17.6992,0,0,1,2.73-9.84A18.49,18.49,0,0,1,20.21,573a23.63,23.63,0,0,1,10.72-2.37,34.59,34.59,0,0,1,10.81,1.75,25.61,25.61,0,0,1,9.75,6l-3.69,5.8a13.9989,13.9989,0,0,0-7.47-5.27,35.0019,35.0019,0,0,0-8.17-1.59,17.8194,17.8194,0,0,0-6.24,1.23,14.19,14.19,0,0,0-5.45,3.61,8.79,8.79,0,0,0-2.2,6.24,9.48,9.48,0,0,0,2.29,6.6,16.838,16.838,0,0,0,5.89,4.13q3.6,1.5,7.47,3a67.6174,67.6174,0,0,1,9.57,3.78,21.44,21.44,0,0,1,7.38,5.8q2.91,3.62,2.9,9.58a22.1792,22.1792,0,0,1-2.63,10.81,18.48,18.48,0,0,1-7.82,7.56Q38.13,642.33,30.22,642.34Z"/><path d="M107.2,642.34a35.84,35.84,0,0,1-17.84-4.48,32.9989,32.9989,0,0,1-12.68-12.57,36.93,36.93,0,0,1-4.66-18.8q0-11.43,4.92-19.6A32.6507,32.6507,0,0,1,90.3,574.41a41.5307,41.5307,0,0,1,19.15-4.3,32.71,32.71,0,0,1,29,19.15l-1.23,2.46,1.06-19.5h7.4v68.71h-8.26V619.67l1.76,3.16a21.54,21.54,0,0,1-4.22,6.94,38.1405,38.1405,0,0,1-16.79,10.9A35.64,35.64,0,0,1,107.2,642.34Zm1.76-7a29.7484,29.7484,0,0,0,14-3.25,26.77,26.77,0,0,0,14.5-22.41v-9.84a27.4585,27.4585,0,0,0-5.54-11.6,30.18,30.18,0,0,0-10.1-8.08,29.86,29.86,0,0,0-27.24.61,27.13,27.13,0,0,0-10.4,10.08,29.32,29.32,0,0,0-3.87,15.29,28.41,28.41,0,0,0,3.87,14.67,29.59,29.59,0,0,0,10.5,10.55,27.42,27.42,0,0,0,14.28,3.95Z"/><path d="M184.17,572.22l.88,21.61L184,589.62a25.93,25.93,0,0,1,11.33-14.15,34.44,34.44,0,0,1,18.55-5.19q9.66,0,15.64,5.72t6.16,14.85v50.08h-8.44v-47.8a16.39,16.39,0,0,0-4.22-11.07q-4-4.39-11.77-4.57a26.06,26.06,0,0,0-22.41,12.65,26.4,26.4,0,0,0-3.6,13.89v36.9h-8.26V572.22Z"/><path d="M283.12,642.34a38.76,38.76,0,0,1-12.48-2.2A22.6092,22.6092,0,0,1,260.1,633l3.86-5.45a26.5024,26.5024,0,0,0,8.35,5.88,24.4706,24.4706,0,0,0,10.28,2.2,25.29,25.29,0,0,0,7.65-1.14,12.06,12.06,0,0,0,5.88-4,11.63,11.63,0,0,0,2.29-7.55q0-4.92-2.73-7.56a21.1117,21.1117,0,0,0-6.85-4.31q-4.12-1.67-8.7-3.07a35.1305,35.1305,0,0,1-12.39-6.68q-4.83-4.21-4.83-11.95a17.69,17.69,0,0,1,2.77-9.77,18.62,18.62,0,0,1,7.47-6.59,23.66,23.66,0,0,1,10.72-2.37,34.59,34.59,0,0,1,10.81,1.75,25.61,25.61,0,0,1,9.75,6l-3.69,5.8a13.8893,13.8893,0,0,0-7.47-5.27,34.9011,34.9011,0,0,0-8.17-1.59,17.8586,17.8586,0,0,0-6.24,1.23,14.26,14.26,0,0,0-5.45,3.61,8.83,8.83,0,0,0-2.19,6.24A9.5191,9.5191,0,0,0,273.5,595a16.9283,16.9283,0,0,0,5.89,4.13q3.6,1.5,7.47,3a67.73,67.73,0,0,1,9.58,3.78,21.63,21.63,0,0,1,7.38,5.8q2.9,3.62,2.9,9.58a22.18,22.18,0,0,1-2.64,10.81,18.4306,18.4306,0,0,1-7.82,7.56A28.8822,28.8822,0,0,1,283.12,642.34Z"/><path d="M331.62,640.93V507.37h8.26V640.93ZM337.07,616l-.7-8.26,42-36.91,5.1,4.39Zm18.61-19.71,32,44.64h-9.67l-28.12-40.07Z"/><path d="M439,642.34a35.84,35.84,0,0,1-17.84-4.48,33,33,0,0,1-12.65-12.57,36.9292,36.9292,0,0,1-4.66-18.8q0-11.43,4.92-19.6a32.71,32.71,0,0,1,13.36-12.48,41.54,41.54,0,0,1,19.16-4.3,32.71,32.71,0,0,1,29,19.15l-1.23,2.46,1.06-19.5h7.38v68.71h-8.26V619.67l1.76,3.16a21.3713,21.3713,0,0,1-4.22,6.94,36.7934,36.7934,0,0,1-7.3,6.33,37.36,37.36,0,0,1-9.49,4.57A35.64,35.64,0,0,1,439,642.34Zm1.76-7a29.7481,29.7481,0,0,0,14-3.25,26.71,26.71,0,0,0,14.5-22.41v-9.84a27.4585,27.4585,0,0,0-5.54-11.6,30.18,30.18,0,0,0-10.1-8.08,29.86,29.86,0,0,0-27.24.61,27.1306,27.1306,0,0,0-10.37,10.11,29.3211,29.3211,0,0,0-3.87,15.29,28.41,28.41,0,0,0,3.87,14.67,29.5914,29.5914,0,0,0,10.45,10.55,27.42,27.42,0,0,0,14.3,3.92Z"/><path d="M515.98,572.22l.87,21.09-1-2.64a27.2292,27.2292,0,0,1,7.21-10.9,35.9983,35.9983,0,0,1,11-7,31.22,31.22,0,0,1,11.62-2.49l-.35,8.09A29.3593,29.3593,0,0,0,531,581.88a27.73,27.73,0,0,0-10.19,9.4,23.9993,23.9993,0,0,0-3.78,13.27v36.38h-8.26V572.22Z"/><path d="M0,669.86H41.1v1.9H21.45v68.33H19.68V671.76H0Z"/><path d="M54.97,740.09V664.86h1.71v48l-.09-1.3a15.65,15.65,0,0,1,5.63-7.1,15.1712,15.1712,0,0,1,9.15-2.91,9.71,9.71,0,0,1,7.61,3.16,11.87,11.87,0,0,1,2.93,8v27.31h-1.8V713a10.56,10.56,0,0,0-2.39-6.75,8.56,8.56,0,0,0-6.53-3,13.63,13.63,0,0,0-7.08,2,15.15,15.15,0,0,0-5.32,5.35,14.57,14.57,0,0,0-2,7.6v21.91Z"/><path d="M113.01,740.69a16.14,16.14,0,0,1-9-2.6A18.8,18.8,0,0,1,97.68,731a21.82,21.82,0,0,1,0-19.86,19,19,0,0,1,6.4-7.15,15.87,15.87,0,0,1,9-2.66,13.53,13.53,0,0,1,9.6,3.66,22.83,22.83,0,0,1,5.91,9.15l-30.92,13.9-.54-1.7L126.98,713l-.45,1a22.101,22.101,0,0,0-5.36-7.6,11.73,11.73,0,0,0-8.25-3.21,14.19,14.19,0,0,0-8,2.41,17,17,0,0,0-5.72,6.5,19.35,19.35,0,0,0-2.12,9,19.6794,19.6794,0,0,0,2,8.71,17.22,17.22,0,0,0,5.54,6.65,14.89,14.89,0,0,0,14.42,1.25,16.6978,16.6978,0,0,0,5-3.5l1.17,1.4a19.889,19.889,0,0,1-5.54,3.7A16.0016,16.0016,0,0,1,113.01,740.69Z"/><path d="M154.92,740.69a15.78,15.78,0,0,1-8.83-2.6,19.09,19.09,0,0,1-6.35-7,20.38,20.38,0,0,1-2.39-9.91,21.8392,21.8392,0,0,1,2.43-10.7,16.8706,16.8706,0,0,1,6.45-6.7,17.62,17.62,0,0,1,9-2.31,15.51,15.51,0,0,1,9.69,3.36,19.1211,19.1211,0,0,1,6.36,8.65l-.18,1.3.45-12.51h1.35v37.82h-1.71V727.18l.27,1.4a18.28,18.28,0,0,1-2.53,4.81,19.16,19.16,0,0,1-3.78,3.85,17,17,0,0,1-4.73,2.55A16.41,16.41,0,0,1,154.92,740.69Zm.18-1.7a15.0005,15.0005,0,0,0,8-2.2,16.29,16.29,0,0,0,5.77-6,18.3206,18.3206,0,0,0,2.26-8.76v-4.1a18.5188,18.5188,0,0,0-3-7.4,18.1593,18.1593,0,0,0-5.68-5.3,14.1094,14.1094,0,0,0-7.35-2,15.32,15.32,0,0,0-13.83,8.46,20.14,20.14,0,0,0-2.12,9.45,19.0006,19.0006,0,0,0,2.16,9.06,17.59,17.59,0,0,0,5.77,6.45A14.1593,14.1593,0,0,0,155.1,739Z"/><path d="M193.31,685.77h1.81v17.31h11.35v1.7H195.12v35.31h-1.81V704.78h-7.93v-1.7h7.93Z"/><path d="M218.55,702.27l.27,11.81-.14-1.08a14.53,14.53,0,0,1,3.29-6.1,15.901,15.901,0,0,1,5.36-3.85,16.88,16.88,0,0,1,6.4-1.46l-.09,1.8a15.1069,15.1069,0,0,0-12.62,7.31,14.47,14.47,0,0,0-2,7.6v21.81h-1.8V702.27Z"/><path d="M258.93,740.69a16.15,16.15,0,0,1-9-2.6,18.7992,18.7992,0,0,1-6.4-7.05,21.82,21.82,0,0,1,0-19.86,19,19,0,0,1,6.4-7.15,15.88,15.88,0,0,1,9-2.66,13.53,13.53,0,0,1,9.59,3.66,22.8307,22.8307,0,0,1,5.91,9.15l-30.92,13.9-.54-1.7L272.89,713l-.45,1a22.101,22.101,0,0,0-5.36-7.6,11.72,11.72,0,0,0-8.24-3.21,14.2,14.2,0,0,0-8,2.41,17,17,0,0,0-5.72,6.5,19.35,19.35,0,0,0-2.12,9,19.6794,19.6794,0,0,0,2,8.71,17.22,17.22,0,0,0,5.54,6.65,14.89,14.89,0,0,0,14.42,1.25,16.6978,16.6978,0,0,0,5-3.5l1.17,1.4a19.8876,19.8876,0,0,1-5.54,3.7A16.002,16.002,0,0,1,258.93,740.69Z"/><path d="M362.93,735.79a31.9136,31.9136,0,0,1-4,2.05,38.539,38.539,0,0,1-4.69,1.65,36.3986,36.3986,0,0,1-4.95,1,35.099,35.099,0,0,1-4.83.35,31.5716,31.5716,0,0,1-13.29-2.75,29.81,29.81,0,0,1-10.23-7.65,34.57,34.57,0,0,1-6.49-11.41,42.1982,42.1982,0,0,1-2.25-13.9,38.8194,38.8194,0,0,1,2.48-14.01,37.159,37.159,0,0,1,6.94-11.5,32.33,32.33,0,0,1,10.28-7.76,28.7393,28.7393,0,0,1,12.52-2.8,28.4479,28.4479,0,0,1,8.79,1.35,32.9992,32.9992,0,0,1,7.89,3.75l-.9,1.7a30.5979,30.5979,0,0,0-4.83-2.6,29.5922,29.5922,0,0,0-5.31-1.7,26.0033,26.0033,0,0,0-5.55-.6,26.9313,26.9313,0,0,0-11.94,2.7,31.2424,31.2424,0,0,0-9.73,7.41,34.5938,34.5938,0,0,0-6.53,10.9,36.92,36.92,0,0,0-2.35,13.21,40.0623,40.0623,0,0,0,2.12,13.2,33.281,33.281,0,0,0,6.08,10.76,27.8418,27.8418,0,0,0,9.56,7.25,29.36,29.36,0,0,0,12.52,2.6,36.7014,36.7014,0,0,0,8.75-1.15,27.0033,27.0033,0,0,0,8.11-3.35V711.58H345.81v-1.9h17.12Z"/><path d="M381.58,702.27l.27,11.81-.17-1.08a14.52,14.52,0,0,1,3.28-6.1,15.94,15.94,0,0,1,5.37-3.85,16.8425,16.8425,0,0,1,6.4-1.46l-.09,1.8a15,15,0,0,0-7.3,2.06,14.79,14.79,0,0,0-5.32,5.25,14.47,14.47,0,0,0-2,7.6v21.81h-1.81V702.27Z"/><path d="M404.21,721.08a20.81,20.81,0,0,1,2.38-9.9,19.2,19.2,0,0,1,6.4-7.15,15.93,15.93,0,0,1,9-2.66,16.1,16.1,0,0,1,9,2.66,19,19,0,0,1,6.45,7.15,21.82,21.82,0,0,1,0,19.86,18.7607,18.7607,0,0,1-6.45,7.05,17,17,0,0,1-18,0,18.66,18.66,0,0,1-6.4-6.95A20.91,20.91,0,0,1,404.21,721.08Zm1.8,0a19.19,19.19,0,0,0,2.12,9.06,17,17,0,0,0,5.76,6.45,14.411,14.411,0,0,0,8.07,2.4,14.16,14.16,0,0,0,8-2.4,17.5,17.5,0,0,0,5.77-6.45,19.0006,19.0006,0,0,0,2.16-9.06,18.74,18.74,0,0,0-2.16-9,17.8906,17.8906,0,0,0-5.77-6.5,13.9092,13.9092,0,0,0-8-2.46,13.63,13.63,0,0,0-8.2,2.61,18.24,18.24,0,0,0-5.68,6.7A18.83,18.83,0,0,0,406.01,721.08Z"/><path d="M463.68,740.89a9.59,9.59,0,0,1-7.57-3.15,12.56,12.56,0,0,1-3-8.15V702.27h1.81v27a10.69,10.69,0,0,0,2.39,6.86,8.79,8.79,0,0,0,6.71,3,13.31,13.31,0,0,0,6.89-2,15.07,15.07,0,0,0,5.32-5.35,14.8,14.8,0,0,0,2-7.71v-21.8h1.8v37.82H478.5l-.18-11.6.27.9a14.0893,14.0893,0,0,1-3.06,5.8,17.1188,17.1188,0,0,1-5.41,4.15A14.63,14.63,0,0,1,463.68,740.89Z"/><path d="M514.97,740.69a16.12,16.12,0,0,1-10-3.35,18.91,18.91,0,0,1-6.4-8.65l.27-2.41V758.2h-1.81V702.27h1.72l.09,14.11-.18-2.9a18.8492,18.8492,0,0,1,6.44-8.65,16.16,16.16,0,0,1,10-3.36,15.7094,15.7094,0,0,1,8.83,2.61,18.8892,18.8892,0,0,1,6.36,7.1,21,21,0,0,1,2.38,10,20.76,20.76,0,0,1-2.38,10,18.59,18.59,0,0,1-6.4,7A16.239,16.239,0,0,1,514.97,740.69Zm-.18-1.7a14.31,14.31,0,0,0,8.11-2.4,17.5,17.5,0,0,0,5.77-6.45,18.7812,18.7812,0,0,0,2.16-9,19.2209,19.2209,0,0,0-2.16-9.1,17.35,17.35,0,0,0-5.77-6.5,14.17,14.17,0,0,0-8-2.41,14.4,14.4,0,0,0-8.07,2.41,17.4193,17.4193,0,0,0-5.81,6.4,18.4494,18.4494,0,0,0-2.16,8.9v1a17.8288,17.8288,0,0,0,2.3,8.61,17.46,17.46,0,0,0,5.76,6.2,14.3,14.3,0,0,0,7.87,2.35Z"/><line class="cls-27" x1="0.01" y1="660.43" x2="545.68" y2="660.43"/><circle class="cls-28" cx="275.74" cy="660.67" r="15.53"/></svg>