<svg xmlns="http://www.w3.org/2000/svg" xmlns:xlink="http://www.w3.org/1999/xlink" viewBox="0 0 545.68 758.2"><defs><style>.cls-1,.cls-28,.cls-3{fill:none;}.cls-2{clip-path:url(#clip-path);}.cls-3{stroke:#ff1616;stroke-width:0.76px;}.cls-12,.cls-13,.cls-14,.cls-15,.cls-16,.cls-17,.cls-18,.cls-25,.cls-27,.cls-3{stroke-miterlimit:3.79;}.cls-25,.cls-4{fill:#020100;}.cls-12,.cls-13,.cls-14,.cls-15,.cls-16,.cls-17,.cls-18,.cls-22,.cls-24,.cls-4{stroke:#000;}.cls-4{stroke-linejoin:bevel;stroke-opacity:1;stroke-width:2.13px;}.cls-5,.cls-6,.cls-8,.cls-9{isolation:isolate;}.cls-5{opacity:0.4;fill:url(#linear-gradient);}.cls-6{opacity:0.48;fill:url(#linear-gradient-2);}.cls-7{fill:url(#linear-gradient-3);}.cls-8,.cls-9{opacity:0.55;}.cls-20,.cls-22,.cls-26,.cls-27,.cls-9{fill:#fff;}.cls-10{fill:#ccc;}.cls-11{fill:#f8f8f8;}.cls-12,.cls-15{fill:#e6e6e6;}.cls-12,.cls-27{stroke-width:0.35px;}.cls-13,.cls-16{fill:#999;}.cls-13{stroke-width:0.32px;}.cls-14,.cls-18{fill:#4d4d4d;}.cls-14{stroke-width:0.28px;}.cls-15,.cls-16,.cls-17,.cls-18{stroke-width:0.43px;}.cls-17{fill:#666;}.cls-19,.cls-28{stroke:#fff;}.cls-19{stroke-width:3.03px;}.cls-21{fill:snow;}.cls-22{stroke-width:0.84px;}.cls-23{fill:#020202;}.cls-24{stroke-miterlimit:20;stroke-width:1.57px;fill:url(#linear-gradient-4);}.cls-25,.cls-26,.cls-27{stroke:snow;}.cls-25{stroke-width:5.26px;}.cls-26{stroke-miterlimit:3.79;stroke-width:0.35px;}.cls-28{stroke-miterlimit:10;stroke-width:0.5px;}.cls-29{fill:#fff200;}</style><clipPath id="clip-path" transform="translate(-5.32 0)"><rect class="cls-1" x="60.07" width="441.98" height="441.98"/></clipPath><linearGradient id="linear-gradient" x1="1957.75" y1="-866.07" x2="2088.87" y2="-700.77" gradientTransform="matrix(-1.22, 0, 0, 1.67, 2802.77, 1556.19)" gradientUnits="userSpaceOnUse"><stop offset="0" stop-color="#fff"/><stop offset="1" stop-color="#fff" stop-opacity="0"/></linearGradient><linearGradient id="linear-gradient-2" x1="-88.33" y1="-851.18" x2="37.94" y2="-701.52" gradientTransform="translate(260.58 1556.19) scale(1.22 1.67)" xlink:href="#linear-gradient"/><linearGradient id="linear-gradient-3" x1="16.77" y1="-625.94" x2="16.77" y2="-492.84" gradientTransform="translate(260.58 1534.4) scale(1.22 2.29)" xlink:href="#linear-gradient"/><linearGradient id="linear-gradient-4" x1="838.27" y1="-348.13" x2="948.14" y2="-165.46" gradientTransform="translate(-1824.83 955.99) scale(2.43 2.54)" gradientUnits="userSpaceOnUse"><stop offset="0" stop-color="#ffec00"/><stop offset="1" stop-color="#ff7300"/></linearGradient></defs><g id="Layer_2" data-name="Layer 2"><g id="Layer_1-2" data-name="Layer 1"><g class="cls-2"><g id="g841"><g id="g2793"><circle id="circle4851" class="cls-3" cx="275.74" cy="220.99" r="204.5"/><path id="rect2676" class="cls-4" d="M281.06,2.63a218.41,218.41,0,1,0,154.39,64A218.21,218.21,0,0,0,281.06,2.63Z" transform="translate(-5.32 0)"/><g id="g1042"><path id="path2431" class="cls-5" d="M364.79,375.11H161.69L432.61,127.59Z" transform="translate(-5.32 0)"/><path id="path1662" class="cls-6" d="M197.26,374.33l206.55.83L130.88,139.66Z" transform="translate(-5.32 0)"/><path id="path1653" class="cls-7" d="M403.81,375.11H158.24L281.06,54.17Z" transform="translate(-5.32 0)"/><g id="g1986"><ellipse id="ellipse1982" class="cls-8" cx="275.71" cy="374.05" rx="122.77" ry="9.57"/><ellipse id="ellipse1968" class="cls-9" cx="275.71" cy="374.05" rx="122.77" ry="9.57"/></g><ellipse id="path2435" class="cls-10" cx="277.18" cy="375.57" rx="83.08" ry="3.51"/></g><ellipse id="path2300" class="cls-11" cx="275.74" cy="58.21" rx="5.04" ry="4.14"/><g id="g2451"><g id="g2043"><g id="g2032"><path id="path2015" class="cls-12" d="M134.41,170.34l-16.78,3.31A169.32,169.32,0,0,0,170,349.93Z" transform="translate(-5.32 0)"/><path id="path2008" class="cls-13" d="M120.94,173l-3.31.65a168.79,168.79,0,0,0,34.92,158.71Z" transform="translate(-5.32 0)"/><path id="path1993" class="cls-14" d="M112.49,198.38a164.78,164.78,0,0,0,21.38,107.74Z" transform="translate(-5.32 0)"/></g><g id="g2027"><path id="path2262" class="cls-15" d="M263.64,51.8A170.27,170.27,0,0,0,114,188.66C190.64,184.7,253.56,127.14,263.64,51.8Z" transform="translate(-5.32 0)"/><path id="path2264" class="cls-16" d="M247.58,54.21A170.34,170.34,0,0,0,117.78,173C183.44,167.5,236.89,118.54,247.58,54.21Z" transform="translate(-5.32 0)"/><path id="path2266" class="cls-17" d="M230.34,58.64a170.33,170.33,0,0,0-106.66,97.59C176.27,148.81,218.75,110,230.34,58.64Z" transform="translate(-5.32 0)"/><path id="path2268" class="cls-18" d="M209.28,66.81a170,170,0,0,0-75.66,69.33A109.18,109.18,0,0,0,209.28,66.81Z" transform="translate(-5.32 0)"/></g></g><g id="g2403"><g id="g2391"><path id="path2385" class="cls-12" d="M427.72,170.34l16.77,3.31a169.32,169.32,0,0,1-52.38,176.28Z" transform="translate(-5.32 0)"/><path id="path2387" class="cls-13" d="M441.18,173l3.31.65a168.79,168.79,0,0,1-34.92,158.71Z" transform="translate(-5.32 0)"/><path id="path2389" class="cls-14" d="M449.64,198.38a165,165,0,0,1-21.38,107.74Z" transform="translate(-5.32 0)"/></g><g id="g2401"><path id="path2393" class="cls-15" d="M298.48,51.8A170.27,170.27,0,0,1,448.16,188.66C371.49,184.7,308.56,127.14,298.48,51.8Z" transform="translate(-5.32 0)"/><path id="path2395" class="cls-16" d="M314.54,54.21A170.35,170.35,0,0,1,444.35,173C378.69,167.5,325.23,118.54,314.54,54.21Z" transform="translate(-5.32 0)"/><path id="path2397" class="cls-17" d="M331.78,58.64a170.31,170.31,0,0,1,106.66,97.59C385.85,148.81,343.37,110,331.78,58.64Z" transform="translate(-5.32 0)"/><path id="path2399" class="cls-18" d="M352.84,66.81a170,170,0,0,1,75.67,69.33A109.19,109.19,0,0,1,352.84,66.81Z" transform="translate(-5.32 0)"/></g></g></g><g id="g1511"><g id="g978"><path id="path893" class="cls-19" d="M229.14,247.37c19.89,25,70.33,6.56,70.68,4,0,0,51.85-14.62,76.83-31.1,10.4,187.91-102.71,193.05-147.51,27.11Z" transform="translate(-5.32 0)"/><path id="path895" class="cls-20" d="M358.16,325.27c-27.08-6.35-47.59-1.85-69.5,12.13,3.14-33.31,49.68-49.44,69.5-12.13Z" transform="translate(-5.32 0)"/><path id="path897" class="cls-21" d="M302.34,267.2c-.28,23-26.94,30.32-38.8,14.27C277.15,281,290.12,279.26,302.34,267.2Z" transform="translate(-5.32 0)"/><path id="path899" class="cls-20" d="M362.28,263.56C354.53,285.11,327,283,321,263.85,334,268.06,346.92,270.77,362.28,263.56Z" transform="translate(-5.32 0)"/></g><g id="g1858"><path id="path851" class="cls-22" d="M171.9,155.85c41.65,7.44,85.19,8,139.5-31.38C329.89,311.7,223.87,319.59,171.9,155.85Z" transform="translate(-5.32 0)"/><path id="path857" class="cls-23" d="M226.83,223.31c27.29,5.14,47.67-.36,68.95-15.23-1.8,33.5-47.58,51.67-68.95,15.23Z" transform="translate(-5.32 0)"/><path id="path859" class="cls-23" d="M205.38,197.52c5.12-22.39,32.68-23.68,40.93-5.41C232.85,189.54,219.83,188.53,205.38,197.52Z" transform="translate(-5.32 0)"/><path id="path877" class="cls-23" d="M265.35,187.89c1-22.95,27.91-29.37,39.23-12.95C291,174.85,277.91,176.23,265.35,187.89Z" transform="translate(-5.32 0)"/></g><path id="path1156" class="cls-24" d="M335.52,85.77c-4.21,6-51.74,56-98.58,58.45-51.11,2.71-76.83-2.6-93.5-10.44,27,40.4,124.42,33.55,163.59-4.13,7.09,37.57,3.92,76.79-7.73,101.14C292.84,244.36,284.24,253,273.92,256s-27.23,2.78-44.77-8.67l-22.72-16.27c33.11,106.51,77.29,145.43,136,140.12,40.61-2,64.89-55.91,64.89-55.91s-27,40.81-60.91,40.22c-22.09-.35-42.92-9.73-60.45-26.65-13.85-13.39-26.31-32.67-39.63-58.21,11.59,3.77,22.38,4.13,32.13,1.18,15.8-4.72,27.57-17.58,35.36-33.85C328.6,206.91,331.54,161.2,322,118.5,332.24,100.46,335.52,85.77,335.52,85.77Z" transform="translate(-5.32 0)"/></g><path id="circle4923" class="cls-25" d="M281.06,2.63C160.47,2.63,62.7,100.4,62.7,221s97.77,218.36,218.36,218.36S499.42,341.58,499.42,221,401.65,2.63,281.06,2.63Zm0,48.09A170.27,170.27,0,1,1,110.79,221,170.28,170.28,0,0,1,281.06,50.72Z" transform="translate(-5.32 0)"/><g id="text4880"><path id="path366" class="cls-26" d="M125.75,115.15l-1.33-1,1-1.92-12-9.12-1.57,1.48-1.33-1,5.16-6.79a8.84,8.84,0,0,1,2.63-2.43,4.66,4.66,0,0,1,2.75-.65,5.51,5.51,0,0,1,2.77,1.14,5.23,5.23,0,0,1,1.8,2.28,4.59,4.59,0,0,1,.14,2.68,8,8,0,0,1-1.43,2.89l-2.52,3.47,5.18,3.93,1.57-1.48,1.32,1Zm7.63-10-10.19-2.4,1.57-2.08,8.22,1.8,1-.9,1.36,1ZM120.19,105l2.15-2.82a4.65,4.65,0,0,0,1.25-3,2.9,2.9,0,0,0-1.32-2.23,3.09,3.09,0,0,0-2.46-.69A4.28,4.28,0,0,0,117.32,98l-2.28,3Z" transform="translate(-5.32 0)"/><path id="path368" class="cls-26" d="M140.11,97.64A4.84,4.84,0,0,1,137,99.41a4,4,0,0,1-3-1.18,3.71,3.71,0,0,1-1.25-2.14,4.69,4.69,0,0,1,.29-2.63,9.17,9.17,0,0,1,1.85-2.88l1.69-1.87-1-.94a2.58,2.58,0,0,0-2-.75,3.32,3.32,0,0,0-2,1.14,4.59,4.59,0,0,0-.86,1.29,5.79,5.79,0,0,0-.38,1.29l1.29,1.53-1.36,1.49-2.4-2.2a6.32,6.32,0,0,1,.64-2.44,9.61,9.61,0,0,1,1.6-2.35,6,6,0,0,1,3.66-2.17,4.47,4.47,0,0,1,3.61,1.29l5.07,4.59.4.38a2.92,2.92,0,0,0,.44.32l1-.92,1.22,1.1L143,94.13l-.89-.56a6.64,6.64,0,0,1-.75-.56,6.44,6.44,0,0,1-.06,2.47,6.37,6.37,0,0,1-1.23,2.16Zm-1.37-1.75a4.93,4.93,0,0,0,1.13-2.14,3.94,3.94,0,0,0-.07-2.12l-1.88-1.74-1.78,2A3.8,3.8,0,0,0,135,94.38a2.72,2.72,0,0,0,.82,2,1.75,1.75,0,0,0,1.45.53,2.56,2.56,0,0,0,1.5-1Z" transform="translate(-5.32 0)"/><path id="path370" class="cls-26" d="M146.84,89.84l-1.12-1.21,1.34-1.71-6.9-7.44-1.81,1.2-1.15-1.22,3.26-3L142,77.86a5,5,0,0,1,.12-2.48,4.58,4.58,0,0,1,1.37-2.12,4.64,4.64,0,0,1,3.53-1.43A5.93,5.93,0,0,1,150.79,74l4.71,5.09,1.82-1.2,1.11,1.21-5,4.67-1.11-1.21,1.33-1.71L149,75.78a3.72,3.72,0,0,0-2.37-1.44,2.88,2.88,0,0,0-2.18,1A4.06,4.06,0,0,0,143.31,77a3.71,3.71,0,0,0,0,2L149,85.17l1.81-1.2,1.11,1.21Z" transform="translate(-5.32 0)"/><path id="path372" class="cls-26" d="M168.19,78.72a8,8,0,0,1-1.94,1.12,8.75,8.75,0,0,1-2.14.7l-.69-2a8.25,8.25,0,0,0,1.75-.55,7.51,7.51,0,0,0,1.68-1,3,3,0,0,0,1.41-2.3A4.18,4.18,0,0,0,167.17,72l-.81-1.07a4.28,4.28,0,0,1-.5,2.07,5.61,5.61,0,0,1-4.37,2.91,5.69,5.69,0,0,1-3-.7,9.6,9.6,0,0,1-2.74-2.4l-.16-.23A11,11,0,0,1,153.65,69a5.8,5.8,0,0,1-.1-3.29,5.37,5.37,0,0,1,4-3.63,5,5,0,0,1,2.28.16l-.9-1.54,1.73-1.34,8.61,11.06a7.18,7.18,0,0,1,1.4,2.92,4.68,4.68,0,0,1-.34,2.85,7.17,7.17,0,0,1-2.12,2.49Zm-4.58-6a3.49,3.49,0,0,0,1.22-1.61,3.73,3.73,0,0,0,.1-2l-4-5.16a4.36,4.36,0,0,0-1.9-.35,3.69,3.69,0,0,0-1.84.76,3.08,3.08,0,0,0-1.2,1.84,4.14,4.14,0,0,0,.23,2.27A10.08,10.08,0,0,0,157.63,71l.16.23a5.67,5.67,0,0,0,2.81,2.15,3.22,3.22,0,0,0,3-.67Zm-2-11.44-2.1-1.06,2.51-2,1,1.31Z" transform="translate(-5.32 0)"/><path id="path374" class="cls-26" d="M183.39,61.62a11,11,0,0,1-3.15,1.29,12,12,0,0,1-3.47.25l-2.1-3.49,1.72-1.05L178.31,61a8,8,0,0,0,2-.27,8.25,8.25,0,0,0,2-.88,5.5,5.5,0,0,0,1.7-1.48,3.14,3.14,0,0,0,.64-1.69A2.94,2.94,0,0,0,184.2,55a2.83,2.83,0,0,0-2.95-1.39,12.05,12.05,0,0,0-2.71.59,13.37,13.37,0,0,1-3.5.7,6.06,6.06,0,0,1-2.73-.53,4.6,4.6,0,0,1-1.9-1.79,4.53,4.53,0,0,1-.72-2.7,5.58,5.58,0,0,1,.91-2.74,7.85,7.85,0,0,1,2.48-2.32,10.14,10.14,0,0,1,3.33-1.31,8.6,8.6,0,0,1,2.93-.07l2,3.29-1.72,1-1.79-2.1a5.41,5.41,0,0,0-1.67.1,6.4,6.4,0,0,0-2,.85A4.47,4.47,0,0,0,172.67,48a3.2,3.2,0,0,0-.57,1.59,2.81,2.81,0,0,0,.45,1.65,2.71,2.71,0,0,0,1.1,1,3.39,3.39,0,0,0,1.74.2,13.34,13.34,0,0,0,2.66-.58,10.07,10.07,0,0,1,5.06-.48,4.88,4.88,0,0,1,3.9,5,5.6,5.6,0,0,1-1,2.79,7.14,7.14,0,0,1-2.58,2.42Z" transform="translate(-5.32 0)"/><path id="path376" class="cls-26" d="M195.11,55.08a4.78,4.78,0,0,1-3.5.56A4.39,4.39,0,0,1,188.83,51a4.6,4.6,0,0,1,1.23-2.38,9.24,9.24,0,0,1,2.75-2l2.28-1.12-.62-1.24a2.56,2.56,0,0,0-1.61-1.43,2.83,2.83,0,0,0-2.27.36,4.53,4.53,0,0,0-2.08,2l.64,1.89-1.79.88L185.92,45A6.75,6.75,0,0,1,187.38,43a10,10,0,0,1,2.34-1.63,6,6,0,0,1,4.18-.69,4.41,4.41,0,0,1,2.89,2.5l3,6.12c.07.17.18.32.25.49s.18.33.26.46l1.29-.5.73,1.48L199,52.83c-.23-.32-.44-.58-.61-.86a5.85,5.85,0,0,1-.49-.77,6.17,6.17,0,0,1-1,2.28,4.94,4.94,0,0,1-1.85,1.6ZM194.49,53a4.62,4.62,0,0,0,1.83-1.62,4.15,4.15,0,0,0,.71-2L195.88,47l-2.35,1.16a3.79,3.79,0,0,0-2,2,2.69,2.69,0,0,0,0,2.11,1.82,1.82,0,0,0,1.14,1,2.4,2.4,0,0,0,1.78-.33Z" transform="translate(-5.32 0)"/><path id="path378" class="cls-26" d="M204.19,50.24l-.62-1.53,1.86-1.13-3.74-9.41-2.11.46L199,37.1l4.14-1.65.94,1.9a5.32,5.32,0,0,1,1-2.27,4.55,4.55,0,0,1,2-1.48,4.79,4.79,0,0,1,3.82-.06,5.84,5.84,0,0,1,2.71,3.4l2.57,6.46,2.12-.46.61,1.53L212.51,47l-.61-1.54,1.85-1.12L211.22,38a3.66,3.66,0,0,0-1.68-2.2,2.91,2.91,0,0,0-2.4.11,3.48,3.48,0,0,0-1.62,1.23A3.76,3.76,0,0,0,204.8,39l3.08,7.75,2.11-.45.61,1.53Z" transform="translate(-5.32 0)"/><path id="path380" class="cls-26" d="M226.23,42.49a11.83,11.83,0,0,1-2.66.5,14,14,0,0,1-2.78-.09l-1-3.22,1.88-.56,1.07,1.81a7.41,7.41,0,0,0,1.49,0,8.8,8.8,0,0,0,1.47-.31,3.18,3.18,0,0,0,2-1.23,2,2,0,0,0,.23-1.64,1.76,1.76,0,0,0-1.07-1.14,5.69,5.69,0,0,0-2.67-.23,9,9,0,0,1-4.08-.4,3.5,3.5,0,0,1-1.89-4.37,4.37,4.37,0,0,1,1.36-1.95A6.53,6.53,0,0,1,222,28.33a8.43,8.43,0,0,1,2.74-.44,5.94,5.94,0,0,1,2.2.36l1.06,3-1.85.58-.94-1.69a3.71,3.71,0,0,0-1.19-.2,5.32,5.32,0,0,0-1.43.25,3.11,3.11,0,0,0-1.73,1.13,1.7,1.7,0,0,0-.3,1.55,1.53,1.53,0,0,0,.46.76,2,2,0,0,0,1,.4,7.4,7.4,0,0,0,1.91,0,10,10,0,0,1,4.47.47,3.51,3.51,0,0,1,1.91,2.17,4,4,0,0,1-.4,3.28,6.12,6.12,0,0,1-3.69,2.49Z" transform="translate(-5.32 0)"/><path id="path382" class="cls-26" d="M233.34,40,233,38.41l2-.82-3.53-16-2.17.08L229,20l4.63-1,4,18,2.18-.08.34,1.62Zm8.93-2-.35-1.62,1.38-.5-.06,0-5.16-4.3.85-2.31,7.16,5.86,2.09-.14.34,1.62Zm-5.37-3-1.38-1.8,4.7-7.34.06-.09-1.51.16-.34-1.62,6-1.31.34,1.62-1.69.72Z" transform="translate(-5.32 0)"/><path id="path384" class="cls-26" d="M254.32,36.2a4.81,4.81,0,0,1-3.48-.61,4.05,4.05,0,0,1-1.55-2.89,3.76,3.76,0,0,1,.42-2.42,5.19,5.19,0,0,1,1.92-1.85,8.63,8.63,0,0,1,3.27-1l2.51-.34-.19-1.39a2.61,2.61,0,0,0-1-1.88,3,3,0,0,0-2.26-.4,4.87,4.87,0,0,0-1.49.42,3.94,3.94,0,0,0-1.11.75l0,2-2,.25-.44-3.22A6.18,6.18,0,0,1,251,22.14a9.23,9.23,0,0,1,2.75-.78,6.08,6.08,0,0,1,4.17.66,4.35,4.35,0,0,1,1.93,3.3l.92,6.78a1.91,1.91,0,0,0,.1.53c0,.18.08.35.09.53l1.38,0,.21,1.62-3.67.5a9,9,0,0,1-.31-1l-.2-.89a5.91,5.91,0,0,1-1.67,1.84,4.49,4.49,0,0,1-2.33,1Zm.1-2.19a4.66,4.66,0,0,0,2.24-.93A3.77,3.77,0,0,0,258,31.4l-.35-2.56L255,29.2a3.8,3.8,0,0,0-2.54,1.21,2.35,2.35,0,0,0-.62,2,1.81,1.81,0,0,0,.78,1.34,2.61,2.61,0,0,0,1.78.27Z" transform="translate(-5.32 0)"/><path id="path386" class="cls-26" d="M264.45,34.7l-.12-1.65,2.11-.5-.67-10.11-2.16-.21-.1-1.68,4.43-.28.33,1.78.06.25a4.72,4.72,0,0,1,1.38-1.81,3.57,3.57,0,0,1,2-.74,8,8,0,0,1,.84,0,2.75,2.75,0,0,1,.62.09l-.2,2.42-1.8,0a2.5,2.5,0,0,0-1.69.59,3.33,3.33,0,0,0-1,1.48l.53,8,2.16.21.12,1.64Z" transform="translate(-5.32 0)"/><path id="path388" class="cls-26" d="M287.17,34.05l.07-1.66,2.16-.26.73-15.1-4.34-.21-.49,2.62-1.93-.11.22-4.62,15.87.79-.22,4.62-1.9-.09-.27-2.68-4.34-.21L292,32.24l2.12.48-.07,1.66Z" transform="translate(-5.32 0)"/><path id="path390" class="cls-26" d="M300.48,34.8l.22-1.65,2.16,0,2.34-16.25-2.05-.65.22-1.65,4.67.68-1.15,8.08a5.27,5.27,0,0,1,2-1.33,5,5,0,0,1,2.43-.21,4.5,4.5,0,0,1,3.29,1.85,5.91,5.91,0,0,1,.65,4.32l-1,6.83,2.05.65-.22,1.65-6.78-1,.22-1.64,2.16,0,1-6.83a3.49,3.49,0,0,0-.4-2.67,2.81,2.81,0,0,0-2.09-1.15,4.15,4.15,0,0,0-2,.23,4.26,4.26,0,0,0-1.62,1.15l-1.19,8.39,2.06.66-.23,1.64Z" transform="translate(-5.32 0)"/><path id="path392" class="cls-26" d="M323.91,39.1a6.28,6.28,0,0,1-3.14-1.63,6.15,6.15,0,0,1-1.63-2.94,8,8,0,0,1,0-3.8l.14-.55a7.64,7.64,0,0,1,1.61-3.32,6.88,6.88,0,0,1,2.72-1.95,5.27,5.27,0,0,1,3.16-.23,5.89,5.89,0,0,1,2.94,1.47,5.07,5.07,0,0,1,1.43,2.6,8.15,8.15,0,0,1-.1,3.42l-.35,1.56-9-2.07,0,.06a6.11,6.11,0,0,0-.07,2.47,3.52,3.52,0,0,0,.93,1.9,3.64,3.64,0,0,0,1.86,1,6.09,6.09,0,0,0,2.33.15,5.93,5.93,0,0,0,1.92-.62l.61,1.87a6.08,6.08,0,0,1-2.26.75,8.42,8.42,0,0,1-3.12-.18Zm-1.65-9.41,6.39,1.46.08-.33a4,4,0,0,0,0-1.84,2.77,2.77,0,0,0-.76-1.49,3,3,0,0,0-1.63-.86,2.8,2.8,0,0,0-1.66.15,4,4,0,0,0-1.45,1.08,5.66,5.66,0,0,0-1,1.78Z" transform="translate(-5.32 0)"/><path id="path394" class="cls-26" d="M335.69,42.21a4.66,4.66,0,0,1-2.89-2,4.13,4.13,0,0,1-.2-3.27,4,4,0,0,1,1.4-2,4.54,4.54,0,0,1,2.52-.83,8.54,8.54,0,0,1,3.37.45l2.42.76.4-1.32a2.57,2.57,0,0,0-.15-2.14,3.07,3.07,0,0,0-1.89-1.31,4.8,4.8,0,0,0-1.55-.25,4.33,4.33,0,0,0-1.31.2L337,32.26l-1.91-.61,1-3.09a6.49,6.49,0,0,1,2.49-.44,9.4,9.4,0,0,1,2.82.45A6.28,6.28,0,0,1,344.85,31a4.41,4.41,0,0,1,.37,3.81l-2,6.55c-.07.17-.1.36-.15.5a2.82,2.82,0,0,0-.11.52l1.27.55-.48,1.57-3.56-1.09c0-.4.09-.76.15-1.06l.19-.9a6,6,0,0,1-2.27,1,5.71,5.71,0,0,1-2.54-.15Zm1-2a4.59,4.59,0,0,0,2.43.13,3.8,3.8,0,0,0,1.89-1L341.8,37l-2.49-.76a3.82,3.82,0,0,0-2.82,0,2.58,2.58,0,0,0-1.4,1.55,1.68,1.68,0,0,0,.14,1.53,2.4,2.4,0,0,0,1.48,1Z" transform="translate(-5.32 0)"/><path id="path396" class="cls-26" d="M350.16,47.13a3.28,3.28,0,0,1-2-1.76,4.11,4.11,0,0,1,.21-3.11l3.07-8.06-2.09-.8.69-1.78,2.09.8,1.23-3.18,2.4.92-1.23,3.18,2.88,1.09-.69,1.77-2.88-1.09-3.07,8.07a2.34,2.34,0,0,0-.17,1.55,1.3,1.3,0,0,0,.85.83,5.9,5.9,0,0,0,1,.27l.87.16L353,47.7c-.4,0-.86-.12-1.4-.2a4.87,4.87,0,0,1-1.47-.37Z" transform="translate(-5.32 0)"/><path id="path398" class="cls-26" d="M354.43,48.58l.68-1.49,2.08.55,4.13-9.27-1.79-1.21.66-1.54,4.05,1.82-.54,1.74-.08.25a5.16,5.16,0,0,1,2.05-1,3.5,3.5,0,0,1,2.13.27,6,6,0,0,1,.72.41,3,3,0,0,1,.5.35l-1.28,2-1.6-.84a2.28,2.28,0,0,0-1.76-.25,3.51,3.51,0,0,0-1.55.85l-3.29,7.33,1.79,1.21-.68,1.49Z" transform="translate(-5.32 0)"/><path id="path400" class="cls-26" d="M370.06,56.32a6.31,6.31,0,0,1-2.61-2.41,6.21,6.21,0,0,1-.83-3.28,8.28,8.28,0,0,1,1-3.66l.28-.5a7.79,7.79,0,0,1,2.41-2.83,6.4,6.4,0,0,1,3.12-1.18,5.26,5.26,0,0,1,3.12.6A5.68,5.68,0,0,1,379,45.24a5,5,0,0,1,.71,2.86,7.6,7.6,0,0,1-1,3.26L378,52.78l-8.14-4.3-.07,0a6.25,6.25,0,0,0-.71,2.36,3.81,3.81,0,0,0,.39,2.08A3.38,3.38,0,0,0,371,54.43a7,7,0,0,0,2.21.75,5,5,0,0,0,2-.11l.14,2a6.19,6.19,0,0,1-2.36.18,6.31,6.31,0,0,1-2.9-.88Zm.84-9.52,5.78,3,.14-.29a4,4,0,0,0,.53-1.79,2.79,2.79,0,0,0-.34-1.62,2.91,2.91,0,0,0-1.35-1.23A2.8,2.8,0,0,0,374,44.6a3.9,3.9,0,0,0-1.65.67,6.93,6.93,0,0,0-1.47,1.45Z" transform="translate(-5.32 0)"/><path id="path402" class="cls-26" d="M389.51,68.19a8.51,8.51,0,0,1-3.09-3.6,8.06,8.06,0,0,1-.53-4.5,11.33,11.33,0,0,1,2-4.74l.17-.27a11.35,11.35,0,0,1,3.73-3.57,8.35,8.35,0,0,1,4.33-1.15,7.38,7.38,0,0,1,4.12,1.36,12.1,12.1,0,0,1,2.81,2.57,9.41,9.41,0,0,1,1.41,2.63l-2.2,3.16-1.74-1.22,1.35-2.42a4.63,4.63,0,0,0-.95-1.4,8.78,8.78,0,0,0-1.69-1.45,4.9,4.9,0,0,0-3-.88,6.66,6.66,0,0,0-3.21,1,9.86,9.86,0,0,0-2.87,2.8l-.17.27a10.23,10.23,0,0,0-1.68,3.7,6.08,6.08,0,0,0,.19,3.35,5.75,5.75,0,0,0,2.17,2.64,8.81,8.81,0,0,0,2,1.07,8.45,8.45,0,0,0,1.66.4l2.55-3.71L393.93,62,395,60.46,400.15,64,396,70.06a7.65,7.65,0,0,1-2.78-.17,9.26,9.26,0,0,1-3.66-1.7Z" transform="translate(-5.32 0)"/><path id="path404" class="cls-26" d="M396.92,73.18l1-1.3,1.89,1.05,6.37-7.9-1.45-1.63,1-1.3,3.46,2.81-1,1.55-.13.22a4.51,4.51,0,0,1,2.24-.38,3.49,3.49,0,0,1,2,.8c.19.17.4.38.6.59a2.58,2.58,0,0,1,.4.51l-1.76,1.66-1.32-1.21a2.62,2.62,0,0,0-1.63-.73,3.26,3.26,0,0,0-1.72.45l-5.05,6.27,1.45,1.63-1,1.3Z" transform="translate(-5.32 0)"/><path id="path406" class="cls-26" d="M410,84.64a6.05,6.05,0,0,1-1.86-3,6.25,6.25,0,0,1,.12-3.37,8.87,8.87,0,0,1,2-3.27l.19-.22a8.89,8.89,0,0,1,3.09-2.23,6.23,6.23,0,0,1,3.36-.4,6,6,0,0,1,3.11,1.62,6.13,6.13,0,0,1,1.86,3,6,6,0,0,1-.12,3.37,8.46,8.46,0,0,1-2,3.27l-.18.23a8.93,8.93,0,0,1-3.1,2.22,6.11,6.11,0,0,1-3.33.37A5.88,5.88,0,0,1,410,84.64Zm1.38-1.46a3.19,3.19,0,0,0,2,.9,4.17,4.17,0,0,0,2.18-.5,8.47,8.47,0,0,0,2.15-1.66l.19-.23a7.61,7.61,0,0,0,1.49-2.24,4.12,4.12,0,0,0,.33-2.22,3.18,3.18,0,0,0-1.06-1.9,3.14,3.14,0,0,0-2-.9,3.92,3.92,0,0,0-2.18.49,7.4,7.4,0,0,0-2.13,1.69l-.18.22a7.82,7.82,0,0,0-1.5,2.25,4.31,4.31,0,0,0-.33,2.22,3,3,0,0,0,1,1.88Z" transform="translate(-5.32 0)"/><path id="path408" class="cls-26" d="M420.24,94.93a4.49,4.49,0,0,1-1.35-3.66,6.88,6.88,0,0,1,2.51-4.07l4.69-4.28-.83-1.46,1.23-1.14,1.11,1.21,1.74,1.9-6.2,5.67a5.34,5.34,0,0,0-1.86,2.62,2.43,2.43,0,0,0,.8,2.11A4.32,4.32,0,0,0,424,95.14a3.52,3.52,0,0,0,2.08-.06l6-5.56-1-1.65,1.23-1.14,1.28,1.41,1.74,1.9-9,8.21.82,1.46-1.2,1.11-2.68-2.92,1.45-1.55a4.59,4.59,0,0,1-2.45-.1,4.19,4.19,0,0,1-2.11-1.32Z" transform="translate(-5.32 0)"/><path id="path410" class="cls-26" d="M422.66,105.29l1.31-1,1.52,1.38,12.35-9.51-1-1.91,1.32-1,2.67,3.46L439.6,98a4.83,4.83,0,0,1,2.22.46,5.51,5.51,0,0,1,1.84,1.54,4.53,4.53,0,0,1,1.07,3,5.65,5.65,0,0,1-1,3.14,12.31,12.31,0,0,1-2.77,3l-.22.15a8.38,8.38,0,0,1-3.25,1.66,5.41,5.41,0,0,1-3,0A5.15,5.15,0,0,1,432,109a5.86,5.86,0,0,1-1.07-2.07,4.47,4.47,0,0,1,0-2.12l-3.88,3,1.08,2-1.31,1Zm10.46,1.77a3.16,3.16,0,0,0,2.74,1.38,5.84,5.84,0,0,0,3.34-1.39l.23-.16a9.68,9.68,0,0,0,2-2.08,4.23,4.23,0,0,0,.78-2.19,3,3,0,0,0-.71-2.05A3.26,3.26,0,0,0,440,99.38a3.8,3.8,0,0,0-1.84-.18l-5.46,4.22a3.72,3.72,0,0,0-.31,1.85,3,3,0,0,0,.75,1.79Z" transform="translate(-5.32 0)"/></g><g id="text1266"><path id="path1048" class="cls-20" d="M107.65,329.76l1.37-.94,1,1.05,18-4.33,1.26,1.83-10.47,15.22.65,1.26-1.37.94-3.1-4.53,1.36-.94,1,1,2.19-3L115.18,331l-3.64.95.62,1.33-1.37.94Zm9.72.74,3.43,5,4.81-6.74.25-.36,0-.07-.43.11Z" transform="translate(-5.32 0)"/><path id="path1050" class="cls-20" d="M128.92,358.08a7.55,7.55,0,0,1-1.77-3.13,6.25,6.25,0,0,1,0-3.27,6.52,6.52,0,0,1,2-3l8.12-7.33-1.15-1.83,1.22-1.12,4.58,5.1-1.22,1.12L139,343.3l-8.12,7.33a4.94,4.94,0,0,0-1.43,2,3.61,3.61,0,0,0-.07,2.13,4.67,4.67,0,0,0,1.16,2,5.27,5.27,0,0,0,1.87,1.36,3.61,3.61,0,0,0,2.13.18,4.64,4.64,0,0,0,2.15-1.2l8.12-7.32-1.15-1.84,1.22-1.12,4.58,5.11L148.2,353l-1.69-1.33L138.39,359a6.69,6.69,0,0,1-3.2,1.7,5.56,5.56,0,0,1-3.24-.35,9.67,9.67,0,0,1-3-2.3Z" transform="translate(-5.32 0)"/><path id="path1052" class="cls-20" d="M136.53,365.88l1.11-1.23,1.84,1.18,6.9-7.46L145,356.64l1.11-1.22,3.29,3-1.3,1.66a5.28,5.28,0,0,1,2.49-.08,4.82,4.82,0,0,1,2.23,1.19,4.65,4.65,0,0,1,1.7,3.41,5.78,5.78,0,0,1-1.9,3.89l-4.7,5.09,1.33,1.73-1.11,1.22-5.05-4.67,1.11-1.22,1.84,1.18,4.67-5.05a3.76,3.76,0,0,0,1.26-2.45,2.93,2.93,0,0,0-1.13-2.12,3.42,3.42,0,0,0-1.83-.93,4.24,4.24,0,0,0-2,.15l-5.64,6.13,1.34,1.72-1.11,1.23Z" transform="translate(-5.32 0)"/><path id="path1054" class="cls-20" d="M149.41,377.51l1-1.3,1.87,1.08,6.39-7.86-1.44-1.66,1-1.29,3.68,3-7.68,9.44,1.44,1.66-1,1.29ZM162.12,365l1.76-2.17,2.09,1.73-1.76,2.16Z" transform="translate(-5.32 0)"/><path id="path1056" class="cls-20" d="M159.86,386a3.53,3.53,0,0,1-1.48-2.23,4.06,4.06,0,0,1,1-2.91l5.13-6.93-1.8-1.32L163.9,371l1.8,1.33,2.05-2.74,2.09,1.55-2.05,2.74,2.49,1.83-1.15,1.55-2.48-1.83-5.14,6.92a2.32,2.32,0,0,0-.57,1.44,1.41,1.41,0,0,0,.58,1,9.22,9.22,0,0,0,.86.54c.33.18.62.32.8.4l-.72,1.58c-.36-.14-.79-.32-1.3-.57a11.12,11.12,0,0,1-1.3-.83Z" transform="translate(-5.32 0)"/><path id="path1058" class="cls-20" d="M174.21,395.71a5.88,5.88,0,0,1-3-5.86,9.06,9.06,0,0,1,1.29-3.61l.14-.25a8.57,8.57,0,0,1,2.62-2.78,6.3,6.3,0,0,1,3.2-1,5.74,5.74,0,0,1,3.35,1,6.27,6.27,0,0,1,2.42,2.55,5.82,5.82,0,0,1,.55,3.34,9.28,9.28,0,0,1-1.29,3.61l-.14.25a9,9,0,0,1-2.62,2.81,6,6,0,0,1-3.21,1A6.39,6.39,0,0,1,174.21,395.71Zm1.08-1.73a3.11,3.11,0,0,0,2.12.5,4.28,4.28,0,0,0,2.05-.91,7,7,0,0,0,1.76-2.06l.15-.25a7.94,7.94,0,0,0,1-2.48,3.92,3.92,0,0,0-.12-2.24,3.47,3.47,0,0,0-1.4-1.68,3.09,3.09,0,0,0-2.13-.5,4,4,0,0,0-2,.9,7.74,7.74,0,0,0-1.76,2.06l-.14.25a7.89,7.89,0,0,0-1,2.49,3.89,3.89,0,0,0,.11,2.23A3.06,3.06,0,0,0,175.29,394Z" transform="translate(-5.32 0)"/><path id="path1060" class="cls-20" d="M181.35,399.58l.79-1.44,2.05.68,4.84-9.05-1.94-1L188,387l2,1,.86-1.59a4.92,4.92,0,0,1,2.69-2.53,4.36,4.36,0,0,1,3.53.46,6.17,6.17,0,0,1,.79.54c.29.22.58.43.87.68l-1.22,1.59a9.68,9.68,0,0,0-1.19-.79,2.05,2.05,0,0,0-1.8-.21,2.94,2.94,0,0,0-1.4,1.48l-.86,1.58,2.74,1.47-.9,1.7L191.3,391l-4.84,9,2,1.48-.79,1.44Z" transform="translate(-5.32 0)"/><path id="path1062" class="cls-20" d="M195.55,406.93l.64-1.52,2.13.47L204.08,392l-1.84-1.15.65-1.51,7.85,3.26a8.28,8.28,0,0,1,3,1.93,4.67,4.67,0,0,1,1.33,2.48,5.16,5.16,0,0,1-.42,3,5.23,5.23,0,0,1-1.76,2.34,4.34,4.34,0,0,1-2.55.8,9,9,0,0,1-3.17-.64l-4-1.58-2.47,6,1.84,1.15-.65,1.51Zm11.64,4.83-.28-10.44,2.42,1,.34,8.42,1.12.72-.65,1.55ZM204,399l3.28,1.36a4.77,4.77,0,0,0,3.24.43,2.94,2.94,0,0,0,1.84-1.84,3.05,3.05,0,0,0,0-2.56A4.22,4.22,0,0,0,210,394.4l-3.5-1.43Z" transform="translate(-5.32 0)"/><path id="path1064" class="cls-20" d="M216.45,415.3a4.87,4.87,0,0,1-2.89-2,4.42,4.42,0,0,1,1.29-5.3,4.66,4.66,0,0,1,2.51-.83,9.17,9.17,0,0,1,3.39.5l2.41.78.43-1.33a2.52,2.52,0,0,0-.15-2.12,3.28,3.28,0,0,0-1.87-1.37,4.34,4.34,0,0,0-1.55-.25,5.27,5.27,0,0,0-1.33.19l-.86,1.8-1.91-.61,1-3.1a6.87,6.87,0,0,1,2.48-.43,9.54,9.54,0,0,1,2.81.46,6.14,6.14,0,0,1,3.5,2.4,4.33,4.33,0,0,1,.33,3.82l-2.14,6.55c-.08.18-.11.36-.18.51l-.11.5,1.26.57-.5,1.59-3.53-1.14c0-.4.11-.76.14-1.05s.11-.61.18-.9a6.25,6.25,0,0,1-2.27.94A4.32,4.32,0,0,1,216.45,415.3Zm1-1.94a4.63,4.63,0,0,0,2.41.14,4,4,0,0,0,1.91-.94l.78-2.45-2.48-.83a3.8,3.8,0,0,0-2.81,0,2.57,2.57,0,0,0-1.44,1.55,1.91,1.91,0,0,0,.12,1.55,2.85,2.85,0,0,0,1.51,1Z" transform="translate(-5.32 0)"/><path id="path1066" class="cls-20" d="M224.46,423.49a3,3,0,0,1-.72-.25,4.63,4.63,0,0,1-.65-.36l.68-1.87a2.58,2.58,0,0,0,.57.29c.29.1.51.18.65.21a1.33,1.33,0,0,0,1.37-.36,3.45,3.45,0,0,0,.93-1.66l3.43-12.89-2-.9.42-1.62,4.58,1.21-4,14.84a4.67,4.67,0,0,1-2,3,4.07,4.07,0,0,1-3.34.4ZM232,401.23l.71-2.67,2.63.72-.71,2.66Z" transform="translate(-5.32 0)"/><path id="path1068" class="cls-20" d="M239.07,421.26l.28-1.62h2.16l2.6-14.84-2.06-.71.29-1.66,2.12.36,2.56.42,2.12.36-.28,1.65H246.7l-2.6,14.87,6.67,1.17.82-2.91,1.94.35-.85,4.94Z" transform="translate(-5.32 0)"/><path id="path1070" class="cls-20" d="M261.07,424.78a6.11,6.11,0,0,1-3.28-1.25,6,6,0,0,1-1.91-2.77,8.81,8.81,0,0,1-.41-3.82l0-.28a8.76,8.76,0,0,1,1.14-3.64,6.12,6.12,0,0,1,2.44-2.35,5.84,5.84,0,0,1,3.46-.58,6.06,6.06,0,0,1,3.28,1.25,6,6,0,0,1,1.95,2.77,8.86,8.86,0,0,1,.4,3.81l0,.29a9.16,9.16,0,0,1-1.15,3.68,5.83,5.83,0,0,1-2.44,2.31,6,6,0,0,1-3.49.58Zm.21-2a3.25,3.25,0,0,0,2.12-.47,4.1,4.1,0,0,0,1.44-1.74,7.16,7.16,0,0,0,.68-2.62l0-.29a7.35,7.35,0,0,0-.18-2.7,4,4,0,0,0-1.09-2,3.34,3.34,0,0,0-2-.89,3.15,3.15,0,0,0-2.12.47,4,4,0,0,0-1.43,1.73,7.89,7.89,0,0,0-.68,2.59l0,.29a8.38,8.38,0,0,0,.15,2.7,4.09,4.09,0,0,0,1.09,2A3.4,3.4,0,0,0,261.28,422.8Z" transform="translate(-5.32 0)"/><path id="path1072" class="cls-20" d="M268.84,425.27l0-1.66,2.16-.33.36-16.41-2.13-.43,0-1.66,4.72.1-.43,18.43,2.13.43,0,1.65Zm9.11.19,0-1.65,1.43-.15,0,0-4-5.39,1.4-2,5.56,7.41,2.05.35,0,1.66Zm-4.47-4.2-.9-2.05,6.32-6,.07-.07-1.51-.21,0-1.66,6.12.13,0,1.66-1.84.29Z" transform="translate(-5.32 0)"/><path id="path1074" class="cls-20" d="M300,424.62l-8.07-16.5-1.55-.07-.14-1.66,6-.59.14,1.66-1.72.43,5.46,11.69.58,1.48h.07l.32-1.54L304.26,407l-1.94-.07-.15-1.65,6-.59.15,1.66-1.51.36-4.68,17.79Z" transform="translate(-5.32 0)"/><path id="path1076" class="cls-20" d="M311.57,423.23l-.29-1.62,2.05-.73-1.68-10h-2.16l-.29-1.65,4.64-.77,2,12H318l.29,1.62Zm-.94-17.78-.47-2.74,2.66-.44.47,2.74Z" transform="translate(-5.32 0)"/><path id="path1078" class="cls-20" d="M319.81,421.91l-.36-1.62,2-.83-3.71-16-2.16.11-.36-1.62,4.61-1.05,4.14,18,2.16-.11.36,1.62Zm8.89-2-.37-1.62,1.37-.51,0,0-5.19-4.23.82-2.31,7.22,5.78,2.05-.15.36,1.62Zm-5.37-3-1.41-1.76,4.63-7.39,0-.11-1.51.19-.36-1.62,6-1.38.36,1.61-1.69.76Z" transform="translate(-5.32 0)"/><path id="path1080" class="cls-20" d="M340.43,417a4.67,4.67,0,0,1-3.53,0,4.42,4.42,0,0,1-2-5,4.69,4.69,0,0,1,1.58-2.13,9,9,0,0,1,3-1.55l2.41-.77-.4-1.33a2.46,2.46,0,0,0-1.33-1.65,3.14,3.14,0,0,0-2.31,0,4.26,4.26,0,0,0-1.4.69,4.73,4.73,0,0,0-1,.93l.33,2-1.91.58-1-3.09a6.6,6.6,0,0,1,1.8-1.77,8.77,8.77,0,0,1,2.59-1.23,6.38,6.38,0,0,1,4.25,0,4.39,4.39,0,0,1,2.45,2.94l2,6.51a4.63,4.63,0,0,1,.15.51c.07.18.1.32.18.5l1.36-.29.51,1.58-3.56,1.13c-.18-.36-.36-.65-.47-.94a9.19,9.19,0,0,1-.36-.86,6.28,6.28,0,0,1-1.33,2.09,4.83,4.83,0,0,1-2.08,1.3Zm-.3-2.16a4.36,4.36,0,0,0,2.05-1.3,3.85,3.85,0,0,0,1-1.87l-.77-2.45-2.51.8a3.67,3.67,0,0,0-2.3,1.62,2.55,2.55,0,0,0-.29,2.09,1.74,1.74,0,0,0,1,1.19,2.92,2.92,0,0,0,1.83-.08Z" transform="translate(-5.32 0)"/><path id="path1082" class="cls-20" d="M355.39,411.79a10.74,10.74,0,0,1-2.59.69,16.61,16.61,0,0,1-2.81.11l-1.23-3.13,1.83-.72,1.2,1.73a9.61,9.61,0,0,0,1.47-.12,5.59,5.59,0,0,0,1.44-.43,3.35,3.35,0,0,0,1.87-1.37,2,2,0,0,0,.1-1.66,1.8,1.8,0,0,0-1.15-1.08,6,6,0,0,0-2.7,0,9.36,9.36,0,0,1-4.1-.09,3.5,3.5,0,0,1-2.21-4.21,4.44,4.44,0,0,1,1.22-2,7,7,0,0,1,2.41-1.52,8.61,8.61,0,0,1,2.7-.65,7.72,7.72,0,0,1,2.23.17l1.3,3-1.8.69-1.08-1.62a3.29,3.29,0,0,0-1.19-.11,4.49,4.49,0,0,0-1.4.37,3.23,3.23,0,0,0-1.62,1.22,1.72,1.72,0,0,0-.18,1.59,1.55,1.55,0,0,0,.51.72,1.91,1.91,0,0,0,1,.32,10.06,10.06,0,0,0,1.91-.11,9.66,9.66,0,0,1,4.5.13,3.38,3.38,0,0,1,2.05,2.05A4,4,0,0,1,359,409a6,6,0,0,1-3.56,2.78Z" transform="translate(-5.32 0)"/><path id="path1084" class="cls-20" d="M374.52,403.18a11,11,0,0,1-3.24,1.09,11.09,11.09,0,0,1-3.45,0L366,400.64l1.8-.9,1.76,2.48a9.9,9.9,0,0,0,2-.11,8,8,0,0,0,2.05-.73,5.61,5.61,0,0,0,1.8-1.37,3.15,3.15,0,0,0,.75-1.62,2.85,2.85,0,0,0-.33-1.69,2.47,2.47,0,0,0-1.08-1.19,3.39,3.39,0,0,0-1.77-.39,10.73,10.73,0,0,0-2.73.4,12.56,12.56,0,0,1-3.53.44,5.75,5.75,0,0,1-2.7-.71,4.46,4.46,0,0,1-1.77-1.94,4.67,4.67,0,0,1-.51-2.74,5.63,5.63,0,0,1,1.11-2.66,7.87,7.87,0,0,1,2.63-2.13,8.62,8.62,0,0,1,3.41-1,8.88,8.88,0,0,1,3,.13l1.73,3.42-1.8.9L370.13,387a5.37,5.37,0,0,0-1.66,0,6.67,6.67,0,0,0-2.08.73,4.52,4.52,0,0,0-1.55,1.22,3,3,0,0,0-.68,1.55,3,3,0,0,0,.33,1.7,2.17,2.17,0,0,0,1,1.07,3.11,3.11,0,0,0,1.73.32,14.08,14.08,0,0,0,2.7-.4A10.25,10.25,0,0,1,375,393a4.69,4.69,0,0,1,3,2.51,4.55,4.55,0,0,1,.51,2.81,5.54,5.54,0,0,1-1.22,2.7,8.53,8.53,0,0,1-2.84,2.17Z" transform="translate(-5.32 0)"/><path id="path1086" class="cls-20" d="M386.13,396.75a4.78,4.78,0,0,1-3.45.83,4,4,0,0,1-2.6-2,3.81,3.81,0,0,1-.58-2.37,4.69,4.69,0,0,1,1-2.45,9.41,9.41,0,0,1,2.59-2.24l2.15-1.34-.72-1.18a2.61,2.61,0,0,0-1.69-1.3,3,3,0,0,0-2.23.55,5.83,5.83,0,0,0-1.23,1,5.56,5.56,0,0,0-.71,1.12l.79,1.83-1.69,1.05-1.69-2.77a7.24,7.24,0,0,1,1.29-2.16,9.24,9.24,0,0,1,2.19-1.81,6,6,0,0,1,4.1-1.05,4.36,4.36,0,0,1,3.1,2.26l3.58,5.83c.11.14.18.32.29.46l.32.43,1.26-.57.87,1.4-3.17,2c-.25-.29-.5-.54-.68-.79a8.44,8.44,0,0,1-.54-.72,7.35,7.35,0,0,1-.75,2.34,6.35,6.35,0,0,1-1.84,1.7Zm-.79-2.05a4.67,4.67,0,0,0,1.68-1.77,3.76,3.76,0,0,0,.54-2.05l-1.34-2.2L384,390.06a3.79,3.79,0,0,0-1.83,2.12,2.61,2.61,0,0,0,.22,2.09,1.83,1.83,0,0,0,1.23.93,2.46,2.46,0,0,0,1.73-.5Z" transform="translate(-5.32 0)"/><path id="path1088" class="cls-20" d="M394.62,391.26l-1-1.33,1.51-1.55-6-8.24-1.94.95-1-1.37,3.59-2.6,1.37,1.62a4.67,4.67,0,0,1,.43-2.45,5.2,5.2,0,0,1,5.28-2.93,5.94,5.94,0,0,1,3.46,2.62l4.08,5.61,1.95-.94,1,1.33-5.57,4-1-1.33,1.5-1.55-4-5.57a3.83,3.83,0,0,0-2.16-1.72,2.89,2.89,0,0,0-2.31.69,3.57,3.57,0,0,0-1.29,1.59,4.11,4.11,0,0,0-.25,2l4.88,6.75,1.94-.94,1,1.33Z" transform="translate(-5.32 0)"/><path id="path1090" class="cls-20" d="M413.23,377.43a11.85,11.85,0,0,1-2.23,1.51,13.84,13.84,0,0,1-2.59,1l-2.2-2.55,1.51-1.27,1.7,1.26a6.26,6.26,0,0,0,1.36-.58A6.19,6.19,0,0,0,412,376a3.38,3.38,0,0,0,1.32-1.91,2.11,2.11,0,0,0-.43-1.58,1.74,1.74,0,0,0-1.44-.64,6.57,6.57,0,0,0-2.56.83,9.23,9.23,0,0,1-3.92,1.23,3.26,3.26,0,0,1-2.63-1.25,3.5,3.5,0,0,1-.83-2,4.45,4.45,0,0,1,.5-2.3,6.82,6.82,0,0,1,1.79-2.2,9.14,9.14,0,0,1,2.34-1.48,6.26,6.26,0,0,1,2.16-.55l2.2,2.41L409,367.75l-1.56-1.18a3.91,3.91,0,0,0-1.18.29,5.23,5.23,0,0,0-1.22.79,3.17,3.17,0,0,0-1.15,1.7,1.74,1.74,0,0,0,.32,1.58,2,2,0,0,0,.73.54,1.84,1.84,0,0,0,1.08,0,11.06,11.06,0,0,0,1.76-.72,9.19,9.19,0,0,1,4.31-1.31,3.53,3.53,0,0,1,2.64,1.26,4,4,0,0,1,.94,3.16,6.88,6.88,0,0,1-2.48,3.61Z" transform="translate(-5.32 0)"/><path id="path1092" class="cls-20" d="M422.5,369a3.34,3.34,0,0,1-2.44,1.05,4.14,4.14,0,0,1-2.71-1.54l-5.92-6.29-1.61,1.55-1.3-1.4,1.62-1.55-2.35-2.48,1.87-1.77,2.34,2.48,2.23-2.13,1.3,1.4-2.23,2.13,5.92,6.29a2.39,2.39,0,0,0,1.33.82,1.31,1.31,0,0,0,1.12-.39,7.42,7.42,0,0,0,.68-.76l.54-.72,1.41,1c-.18.33-.47.72-.79,1.19A11,11,0,0,1,422.5,369Z" transform="translate(-5.32 0)"/><path id="path1094" class="cls-20" d="M425.37,366.13,424.15,365l1.18-1.8-12-11.17-1.72,1.3-1.23-1.15,3.23-3.46,6,5.56a4.91,4.91,0,0,1,.07-2.41,5.12,5.12,0,0,1,1.18-2.13,4.64,4.64,0,0,1,3.41-1.66,5.93,5.93,0,0,1,3.93,1.94l5.05,4.66,1.73-1.3,1.22,1.12-4.66,5-1.23-1.11,1.18-1.8-5.05-4.71a3.78,3.78,0,0,0-2.41-1.22,2.88,2.88,0,0,0-2.16,1.09,3.76,3.76,0,0,0-.93,1.76,4.15,4.15,0,0,0,0,2l6.2,5.79,1.73-1.3,1.23,1.11Z" transform="translate(-5.32 0)"/><path id="path1096" class="cls-20" d="M440.21,349.87a5,5,0,0,1-2.95,2,3.91,3.91,0,0,1-3.1-1,3.86,3.86,0,0,1-1.37-2.05,4.77,4.77,0,0,1,.1-2.66,8.89,8.89,0,0,1,1.65-3l1.58-2L435,340.3a2.47,2.47,0,0,0-2.06-.61,3.15,3.15,0,0,0-1.9,1.27,4.74,4.74,0,0,0-.79,1.33,4.35,4.35,0,0,0-.29,1.3l1.38,1.44-1.26,1.55-2.56-2a6.85,6.85,0,0,1,.46-2.49,8.88,8.88,0,0,1,1.44-2.45,6.22,6.22,0,0,1,3.48-2.42,4.4,4.4,0,0,1,3.68,1l5.33,4.27.44.32a2.32,2.32,0,0,0,.43.29l1-1,1.3,1.05-2.3,2.92c-.36-.18-.65-.36-.94-.51a8.62,8.62,0,0,1-.79-.5,6.3,6.3,0,0,1,.08,2.45,4.07,4.07,0,0,1-.93,2.31Zm-1.45-1.66a4.43,4.43,0,0,0,1-2.23,4.14,4.14,0,0,0-.22-2.12l-2-1.62-1.62,2.06a3.71,3.71,0,0,0-1,2.63,2.61,2.61,0,0,0,.94,1.87,1.69,1.69,0,0,0,1.48.42,2.23,2.23,0,0,0,1.47-1Z" transform="translate(-5.32 0)"/><path id="path1098" class="cls-20" d="M446.27,341.79l-1.37-.93.9-2-8.4-5.67-1.51,1.56-1.37-.94,2.47-3.67,1.84,1a5.35,5.35,0,0,1-.47-2.45,4.67,4.67,0,0,1,.86-2.38,4.79,4.79,0,0,1,3.09-2.2,5.81,5.81,0,0,1,4.14,1.29l5.77,3.87,1.51-1.55,1.37.93-3.84,5.7-1.37-.93.89-2-5.69-3.84a3.75,3.75,0,0,0-2.63-.85,2.86,2.86,0,0,0-1.91,1.44,3.32,3.32,0,0,0-.64,1.95,3.69,3.69,0,0,0,.47,1.94l6.92,4.66,1.51-1.55,1.37.93Z" transform="translate(-5.32 0)"/></g><circle class="cls-27" cx="79.88" cy="220.99" r="12.28"/><circle class="cls-27" cx="471.61" cy="220.99" r="12.28"/></g></g></g><path class="cls-20" d="M132.11,449.83A50.35,50.35,0,0,1,147.63,452a31.58,31.58,0,0,1,11.42,6.31,26.91,26.91,0,0,1,7,9.84,33.27,33.27,0,0,1,2.4,12.94,39.16,39.16,0,0,1-1.71,11.35,29.21,29.21,0,0,1-5.55,10.35,27.56,27.56,0,0,1-10.15,7.5q-6.31,2.85-15.65,2.84H122.27V542.7H104V449.83Zm3.15,45.68a15.37,15.37,0,0,0,6.94-1.39,11.89,11.89,0,0,0,4.36-3.53,14.69,14.69,0,0,0,2.27-4.48,15.44,15.44,0,0,0,.69-4.35,21.94,21.94,0,0,0-.44-3.85,15.29,15.29,0,0,0-1.83-4.73,11.15,11.15,0,0,0-4.23-4,15.27,15.27,0,0,0-7.63-1.64H122.27v28Zm17.16,11.36,23,35.83H154.06l-23.47-35.33Z" transform="translate(-5.32 0)"/><path class="cls-20" d="M180.05,542.7l41.89-96.53h1l41.89,96.53H243.65L216.9,474.82l13.25-9.09-32.05,77Zm28.65-33.56h27.88L243,524.53H203Z" transform="translate(-5.32 0)"/><path class="cls-20" d="M361.5,546.48l-70.41-63.59,5.42,3,.38,56.78H278.34V446.17h.76L348,509.52l-4-1.77-.38-57.92H362v96.65Z" transform="translate(-5.32 0)"/><path class="cls-20" d="M461.3,533.36a19.08,19.08,0,0,1-5.17,3.6A55.59,55.59,0,0,1,448,540.3a79.15,79.15,0,0,1-9.4,2.46,47.15,47.15,0,0,1-9.09,1,59.09,59.09,0,0,1-20.44-3.34A45.7,45.7,0,0,1,393.54,531a40.3,40.3,0,0,1-9.84-14.2,46.24,46.24,0,0,1-3.41-17.91q0-12.75,3.85-22.15a44.14,44.14,0,0,1,10.48-15.64,42.36,42.36,0,0,1,15.26-9.28,54.34,54.34,0,0,1,18.11-3,64.63,64.63,0,0,1,16.4,2A53.47,53.47,0,0,1,457,455.64l-5.93,17a36.31,36.31,0,0,0-6.06-2.52,68.19,68.19,0,0,0-7.69-2.08,34.05,34.05,0,0,0-6.94-.82A43.22,43.22,0,0,0,417,469.14a25.22,25.22,0,0,0-9.78,5.68,23.77,23.77,0,0,0-6,9.4,38.41,38.41,0,0,0-2,13.06,29.41,29.41,0,0,0,2.27,11.79,25.24,25.24,0,0,0,6.37,8.9,27.74,27.74,0,0,0,9.72,5.55A38.78,38.78,0,0,0,430,525.41a43.18,43.18,0,0,0,7.19-.56,17.57,17.57,0,0,0,5.55-1.83V511.79h-16V494.12H461.3Z" transform="translate(-5.32 0)"/><path class="cls-20" d="M35.54,642.34a38.75,38.75,0,0,1-12.47-2.2A22.69,22.69,0,0,1,12.52,633l3.87-5.45a26.38,26.38,0,0,0,8.35,5.88A24.44,24.44,0,0,0,35,635.66a25.18,25.18,0,0,0,7.64-1.14,12.09,12.09,0,0,0,5.89-4A11.62,11.62,0,0,0,50.83,623q0-4.92-2.72-7.56a21.21,21.21,0,0,0-6.85-4.31q-4.14-1.67-8.7-3.07a35.13,35.13,0,0,1-12.39-6.68q-4.85-4.21-4.84-11.95a17.7,17.7,0,0,1,2.73-9.84A18.49,18.49,0,0,1,25.53,573a23.63,23.63,0,0,1,10.72-2.37,34.59,34.59,0,0,1,10.81,1.75,25.61,25.61,0,0,1,9.75,6l-3.69,5.8a14,14,0,0,0-7.47-5.27,35,35,0,0,0-8.17-1.59,17.82,17.82,0,0,0-6.24,1.23,14.19,14.19,0,0,0-5.45,3.61,8.79,8.79,0,0,0-2.2,6.24A9.48,9.48,0,0,0,25.88,595a16.84,16.84,0,0,0,5.89,4.13c2.4,1,4.89,2,7.47,3a67.6,67.6,0,0,1,9.57,3.78,21.44,21.44,0,0,1,7.38,5.8q2.91,3.62,2.9,9.58a22.18,22.18,0,0,1-2.63,10.81,18.48,18.48,0,0,1-7.82,7.56Q43.45,642.33,35.54,642.34Z" transform="translate(-5.32 0)"/><path class="cls-20" d="M112.52,642.34a35.84,35.84,0,0,1-17.84-4.48A33,33,0,0,1,82,625.29a36.93,36.93,0,0,1-4.66-18.8q0-11.43,4.92-19.6a32.65,32.65,0,0,1,13.36-12.48,41.53,41.53,0,0,1,19.15-4.3,32.71,32.71,0,0,1,29,19.15l-1.23,2.46,1.06-19.5H151v68.71h-8.26V619.67l1.76,3.16a21.54,21.54,0,0,1-4.22,6.94,38.14,38.14,0,0,1-16.79,10.9A35.64,35.64,0,0,1,112.52,642.34Zm1.76-7a29.75,29.75,0,0,0,14-3.25,26.77,26.77,0,0,0,14.5-22.41v-9.84a27.46,27.46,0,0,0-5.54-11.6,30.18,30.18,0,0,0-10.1-8.08,29.86,29.86,0,0,0-27.24.61A27.13,27.13,0,0,0,89.5,590.85a29.32,29.32,0,0,0-3.87,15.29,28.41,28.41,0,0,0,3.87,14.67A29.59,29.59,0,0,0,100,631.36,27.42,27.42,0,0,0,114.28,635.31Z" transform="translate(-5.32 0)"/><path class="cls-20" d="M189.49,572.22l.88,21.61-1.05-4.21a25.93,25.93,0,0,1,11.33-14.15,34.44,34.44,0,0,1,18.55-5.19q9.66,0,15.64,5.72T241,590.85v50.08h-8.44v-47.8a16.39,16.39,0,0,0-4.22-11.07q-4-4.39-11.77-4.57a26.06,26.06,0,0,0-22.41,12.65,26.4,26.4,0,0,0-3.6,13.89v36.9h-8.26V572.22Z" transform="translate(-5.32 0)"/><path class="cls-20" d="M288.44,642.34a38.76,38.76,0,0,1-12.48-2.2A22.61,22.61,0,0,1,265.42,633l3.86-5.45a26.5,26.5,0,0,0,8.35,5.88,24.47,24.47,0,0,0,10.28,2.2,25.29,25.29,0,0,0,7.65-1.14,12.06,12.06,0,0,0,5.88-4,11.63,11.63,0,0,0,2.29-7.55q0-4.92-2.73-7.56a21.11,21.11,0,0,0-6.85-4.31q-4.12-1.67-8.7-3.07a35.13,35.13,0,0,1-12.39-6.68q-4.83-4.21-4.83-11.95A17.69,17.69,0,0,1,271,579.6a18.62,18.62,0,0,1,7.47-6.59,23.66,23.66,0,0,1,10.72-2.37A34.59,34.59,0,0,1,300,572.39a25.61,25.61,0,0,1,9.75,6l-3.69,5.8a13.89,13.89,0,0,0-7.47-5.27,34.9,34.9,0,0,0-8.17-1.59,17.86,17.86,0,0,0-6.24,1.23,14.26,14.26,0,0,0-5.45,3.61,8.83,8.83,0,0,0-2.19,6.24,9.52,9.52,0,0,0,2.28,6.59,16.93,16.93,0,0,0,5.89,4.13c2.4,1,4.89,2,7.47,3a67.73,67.73,0,0,1,9.58,3.78,21.63,21.63,0,0,1,7.38,5.8q2.9,3.62,2.9,9.58a22.18,22.18,0,0,1-2.64,10.81,18.43,18.43,0,0,1-7.82,7.56Q296.34,642.33,288.44,642.34Z" transform="translate(-5.32 0)"/><path class="cls-20" d="M336.94,640.93V507.37h8.26V640.93ZM342.39,616l-.7-8.26,42-36.91,5.1,4.39ZM361,596.29l32,44.64h-9.67l-28.12-40.07Z" transform="translate(-5.32 0)"/><path class="cls-20" d="M444.32,642.34a35.84,35.84,0,0,1-17.84-4.48,33,33,0,0,1-12.65-12.57,36.93,36.93,0,0,1-4.66-18.8q0-11.43,4.92-19.6a32.71,32.71,0,0,1,13.36-12.48,41.54,41.54,0,0,1,19.16-4.3,32.71,32.71,0,0,1,29,19.15l-1.23,2.46,1.06-19.5h7.38v68.71h-8.26V619.67l1.76,3.16a21.37,21.37,0,0,1-4.22,6.94,36.79,36.79,0,0,1-7.3,6.33,37.36,37.36,0,0,1-9.49,4.57A35.64,35.64,0,0,1,444.32,642.34Zm1.76-7a29.75,29.75,0,0,0,14-3.25,26.71,26.71,0,0,0,14.5-22.41v-9.84a27.46,27.46,0,0,0-5.54-11.6,30.18,30.18,0,0,0-10.1-8.08,29.86,29.86,0,0,0-27.24.61,27.13,27.13,0,0,0-10.37,10.11,29.32,29.32,0,0,0-3.87,15.29,28.41,28.41,0,0,0,3.87,14.67,29.59,29.59,0,0,0,10.45,10.55A27.42,27.42,0,0,0,446.08,635.31Z" transform="translate(-5.32 0)"/><path class="cls-20" d="M521.3,572.22l.87,21.09-1-2.64a27.23,27.23,0,0,1,7.21-10.9,36,36,0,0,1,11-7A31.22,31.22,0,0,1,551,570.28l-.35,8.09a29.36,29.36,0,0,0-14.33,3.51,27.73,27.73,0,0,0-10.19,9.4,24,24,0,0,0-3.78,13.27v36.38h-8.26V572.22Z" transform="translate(-5.32 0)"/><path class="cls-20" d="M5.32,669.86h41.1v1.9H26.77v68.33H25V671.76H5.32Z" transform="translate(-5.32 0)"/><path class="cls-20" d="M60.29,740.09V664.86H62v48l-.09-1.3a15.65,15.65,0,0,1,5.63-7.1,15.17,15.17,0,0,1,9.15-2.91,9.71,9.71,0,0,1,7.61,3.16,11.87,11.87,0,0,1,2.93,8v27.31h-1.8V713a10.56,10.56,0,0,0-2.39-6.75,8.56,8.56,0,0,0-6.53-3,13.63,13.63,0,0,0-7.08,2,15.15,15.15,0,0,0-5.32,5.35,14.57,14.57,0,0,0-2,7.6v21.91Z" transform="translate(-5.32 0)"/><path class="cls-20" d="M118.33,740.69a16.14,16.14,0,0,1-9-2.6A18.8,18.8,0,0,1,103,731a21.82,21.82,0,0,1,0-19.86,19,19,0,0,1,6.4-7.15,15.87,15.87,0,0,1,9-2.66,13.53,13.53,0,0,1,9.6,3.66,22.83,22.83,0,0,1,5.91,9.15l-30.92,13.9-.54-1.7L132.3,713l-.45,1a22.1,22.1,0,0,0-5.36-7.6,11.73,11.73,0,0,0-8.25-3.21,14.19,14.19,0,0,0-8,2.41,17,17,0,0,0-5.72,6.5,19.35,19.35,0,0,0-2.12,9,19.68,19.68,0,0,0,2,8.71,17.22,17.22,0,0,0,5.54,6.65,14.89,14.89,0,0,0,14.42,1.25,16.7,16.7,0,0,0,5-3.5l1.17,1.4a19.89,19.89,0,0,1-5.54,3.7A16,16,0,0,1,118.33,740.69Z" transform="translate(-5.32 0)"/><path class="cls-20" d="M160.24,740.69a15.78,15.78,0,0,1-8.83-2.6,19.09,19.09,0,0,1-6.35-7,20.38,20.38,0,0,1-2.39-9.91,21.84,21.84,0,0,1,2.43-10.7,16.87,16.87,0,0,1,6.45-6.7,17.62,17.62,0,0,1,9-2.31,15.51,15.51,0,0,1,9.69,3.36,19.12,19.12,0,0,1,6.36,8.65l-.18,1.3.45-12.51h1.35v37.82h-1.71V727.18l.27,1.4a18.28,18.28,0,0,1-2.53,4.81,19.16,19.16,0,0,1-3.78,3.85,17,17,0,0,1-4.73,2.55A16.41,16.41,0,0,1,160.24,740.69Zm.18-1.7a15,15,0,0,0,8-2.2,16.29,16.29,0,0,0,5.77-6,18.32,18.32,0,0,0,2.26-8.76v-4.1a18.52,18.52,0,0,0-3-7.4,18.16,18.16,0,0,0-5.68-5.3,14.11,14.11,0,0,0-7.35-2,15.32,15.32,0,0,0-13.83,8.46,20.14,20.14,0,0,0-2.12,9.45,19,19,0,0,0,2.16,9.06,17.59,17.59,0,0,0,5.77,6.45A14.16,14.16,0,0,0,160.42,739Z" transform="translate(-5.32 0)"/><path class="cls-20" d="M198.63,685.77h1.81v17.31h11.35v1.7H200.44v35.31h-1.81V704.78H190.7v-1.7h7.93Z" transform="translate(-5.32 0)"/><path class="cls-20" d="M223.87,702.27l.27,11.81L224,713a14.53,14.53,0,0,1,3.29-6.1,15.9,15.9,0,0,1,5.36-3.85,16.88,16.88,0,0,1,6.4-1.46l-.09,1.8a15,15,0,0,0-7.3,2.06,14.87,14.87,0,0,0-5.32,5.25,14.47,14.47,0,0,0-2,7.6v21.81h-1.8V702.27Z" transform="translate(-5.32 0)"/><path class="cls-20" d="M264.25,740.69a16.15,16.15,0,0,1-9-2.6,18.8,18.8,0,0,1-6.4-7.05,21.82,21.82,0,0,1,0-19.86,19,19,0,0,1,6.4-7.15,15.88,15.88,0,0,1,9-2.66,13.53,13.53,0,0,1,9.59,3.66,22.83,22.83,0,0,1,5.91,9.15l-30.92,13.9-.54-1.7L278.21,713l-.45,1a22.1,22.1,0,0,0-5.36-7.6,11.72,11.72,0,0,0-8.24-3.21,14.2,14.2,0,0,0-8,2.41,17,17,0,0,0-5.72,6.5,19.35,19.35,0,0,0-2.12,9,19.68,19.68,0,0,0,2,8.71,17.22,17.22,0,0,0,5.54,6.65,14.89,14.89,0,0,0,14.42,1.25,16.7,16.7,0,0,0,5-3.5l1.17,1.4a19.89,19.89,0,0,1-5.54,3.7A16,16,0,0,1,264.25,740.69Z" transform="translate(-5.32 0)"/><path class="cls-20" d="M368.25,735.79a31.91,31.91,0,0,1-4,2.05,38.53,38.53,0,0,1-4.69,1.65,36.4,36.4,0,0,1-4.95,1,35.1,35.1,0,0,1-4.83.35,31.57,31.57,0,0,1-13.29-2.75,29.81,29.81,0,0,1-10.23-7.65,34.57,34.57,0,0,1-6.49-11.41,42.2,42.2,0,0,1-2.25-13.9A38.82,38.82,0,0,1,320,691.12a37.16,37.16,0,0,1,6.94-11.5,32.33,32.33,0,0,1,10.28-7.76,28.74,28.74,0,0,1,12.52-2.8,28.45,28.45,0,0,1,8.79,1.35,33,33,0,0,1,7.89,3.75l-.9,1.7a30.59,30.59,0,0,0-4.83-2.6,29.6,29.6,0,0,0-5.31-1.7,26,26,0,0,0-5.55-.6,26.93,26.93,0,0,0-11.94,2.7,31.24,31.24,0,0,0-9.73,7.41,34.59,34.59,0,0,0-6.53,10.9,36.92,36.92,0,0,0-2.35,13.21,40.06,40.06,0,0,0,2.12,13.2,33.28,33.28,0,0,0,6.08,10.76,27.84,27.84,0,0,0,9.56,7.25,29.36,29.36,0,0,0,12.52,2.6,36.7,36.7,0,0,0,8.75-1.15,27,27,0,0,0,8.11-3.35V711.58H351.13v-1.9h17.12Z" transform="translate(-5.32 0)"/><path class="cls-20" d="M386.9,702.27l.27,11.81L387,713a14.52,14.52,0,0,1,3.28-6.1,15.94,15.94,0,0,1,5.37-3.85,16.84,16.84,0,0,1,6.4-1.46l-.09,1.8a15,15,0,0,0-7.3,2.06,14.79,14.79,0,0,0-5.32,5.25,14.47,14.47,0,0,0-2,7.6v21.81h-1.81V702.27Z" transform="translate(-5.32 0)"/><path class="cls-20" d="M409.53,721.08a20.81,20.81,0,0,1,2.38-9.9,19.2,19.2,0,0,1,6.4-7.15,15.93,15.93,0,0,1,9-2.66,16.1,16.1,0,0,1,9,2.66,19,19,0,0,1,6.45,7.15,21.82,21.82,0,0,1,0,19.86,18.76,18.76,0,0,1-6.45,7.05,17,17,0,0,1-18,0,18.66,18.66,0,0,1-6.4-6.95A20.91,20.91,0,0,1,409.53,721.08Zm1.8,0a19.19,19.19,0,0,0,2.12,9.06,17,17,0,0,0,5.76,6.45,14.41,14.41,0,0,0,8.07,2.4,14.16,14.16,0,0,0,8-2.4,17.5,17.5,0,0,0,5.77-6.45,19,19,0,0,0,2.16-9.06,18.74,18.74,0,0,0-2.16-9,17.89,17.89,0,0,0-5.77-6.5,13.91,13.91,0,0,0-8-2.46,13.63,13.63,0,0,0-8.2,2.61,18.24,18.24,0,0,0-5.68,6.7A18.83,18.83,0,0,0,411.33,721.08Z" transform="translate(-5.32 0)"/><path class="cls-20" d="M469,740.89a9.59,9.59,0,0,1-7.57-3.15,12.56,12.56,0,0,1-3-8.15V702.27h1.81v27a10.69,10.69,0,0,0,2.39,6.86,8.79,8.79,0,0,0,6.71,3,13.31,13.31,0,0,0,6.89-2,15.07,15.07,0,0,0,5.32-5.35,14.8,14.8,0,0,0,2-7.71V702.27h1.8v37.82h-1.53l-.18-11.6.27.9a14.09,14.09,0,0,1-3.06,5.8,17.12,17.12,0,0,1-5.41,4.15A14.63,14.63,0,0,1,469,740.89Z" transform="translate(-5.32 0)"/><path class="cls-20" d="M520.29,740.69a16.12,16.12,0,0,1-10-3.35,18.91,18.91,0,0,1-6.4-8.65l.27-2.41V758.2h-1.81V702.27h1.72l.09,14.11-.18-2.9a18.85,18.85,0,0,1,6.44-8.65,16.16,16.16,0,0,1,10-3.36,15.71,15.71,0,0,1,8.83,2.61,18.89,18.89,0,0,1,6.36,7.1,21,21,0,0,1,2.38,10,20.76,20.76,0,0,1-2.38,10,18.59,18.59,0,0,1-6.4,7A16.24,16.24,0,0,1,520.29,740.69Zm-.18-1.7a14.31,14.31,0,0,0,8.11-2.4,17.5,17.5,0,0,0,5.77-6.45,18.78,18.78,0,0,0,2.16-9,19.22,19.22,0,0,0-2.16-9.1,17.35,17.35,0,0,0-5.77-6.5,14.17,14.17,0,0,0-8-2.41,14.4,14.4,0,0,0-8.07,2.41,17.42,17.42,0,0,0-5.81,6.4,18.45,18.45,0,0,0-2.16,8.9v1a17.83,17.83,0,0,0,2.3,8.61,17.46,17.46,0,0,0,5.76,6.2A14.3,14.3,0,0,0,520.11,739Z" transform="translate(-5.32 0)"/><line class="cls-28" x1="0.01" y1="660.43" x2="545.68" y2="660.43"/><circle class="cls-29" cx="275.74" cy="660.67" r="15.53"/></g></g></svg>